<?xml version="1.0" encoding="UTF-8" standalone="no"?>
<!DOCTYPE svg PUBLIC "-//W3C//DTD SVG 1.1//EN"
 "http://www.w3.org/Graphics/SVG/1.1/DTD/svg11.dtd">
<!-- Generated by graphviz version 14.0.4 (20251115.1723)
 -->
<!-- Title: data_cleaning_pipeline Pages: 1 -->
<svg width="305pt" height="1679pt"
 viewBox="0.00 0.00 305.00 1679.00" xmlns="http://www.w3.org/2000/svg" xmlns:xlink="http://www.w3.org/1999/xlink">
<g id="graph0" class="graph" transform="scale(1 1) rotate(0) translate(50.4 1628.39)">
<title>data_cleaning_pipeline</title>
<polygon fill="#f8fafc" stroke="none" points="-50.4,50.4 -50.4,-1628.39 254.15,-1628.39 254.15,50.4 -50.4,50.4"/>
<!-- Start -->
<g id="node1" class="node">
<title>Start</title>
<ellipse fill="#4caf50" stroke="#94a3b8" stroke-width="2" cx="111.62" cy="-1553.25" rx="71.77" ry="24.75"/>
<text xml:space="preserve" text-anchor="middle" x="111.62" y="-1556.3" font-family="Times New Roman,serif" font-size="11.00" fill="#ffffff">Start: Raw Dataset</text>
<text xml:space="preserve" text-anchor="middle" x="111.62" y="-1542.8" font-family="Times New Roman,serif" font-size="11.00" fill="#ffffff">2000 Records</text>
</g>
<!-- Load -->
<g id="node2" class="node">
<title>Load</title>
<path fill="#2196f3" stroke="#94a3b8" stroke-width="2" d="M135.38,-1463.5C135.38,-1463.5 87.88,-1463.5 87.88,-1463.5 81.88,-1463.5 75.88,-1457.5 75.88,-1451.5 75.88,-1451.5 75.88,-1439.5 75.88,-1439.5 75.88,-1433.5 81.88,-1427.5 87.88,-1427.5 87.88,-1427.5 135.38,-1427.5 135.38,-1427.5 141.38,-1427.5 147.38,-1433.5 147.38,-1439.5 147.38,-1439.5 147.38,-1451.5 147.38,-1451.5 147.38,-1457.5 141.38,-1463.5 135.38,-1463.5"/>
<text xml:space="preserve" text-anchor="middle" x="111.62" y="-1448.55" font-family="Times New Roman,serif" font-size="11.00" fill="#ffffff">Load Data</text>
<text xml:space="preserve" text-anchor="middle" x="111.62" y="-1435.05" font-family="Times New Roman,serif" font-size="11.00" fill="#ffffff">CSV / Excel</text>
</g>
<!-- Start&#45;&gt;Load -->
<g id="edge1" class="edge">
<title>Start&#45;&gt;Load</title>
<path fill="none" stroke="#475569" stroke-width="1.6" d="M111.62,-1528.25C111.62,-1512.31 111.62,-1491.31 111.62,-1474.59"/>
<polygon fill="#475569" stroke="#475569" stroke-width="1.6" points="111.63,-1465.76 115.68,-1474.76 111.93,-1468.31 111.93,-1474.76 111.63,-1474.76 111.33,-1474.76 111.33,-1468.31 107.58,-1474.76 111.63,-1465.76"/>
</g>
<!-- Inspect -->
<g id="node3" class="node">
<title>Inspect</title>
<path fill="#64b5f6" stroke="#94a3b8" stroke-width="2" d="M145.12,-1362.5C145.12,-1362.5 78.12,-1362.5 78.12,-1362.5 72.12,-1362.5 66.12,-1356.5 66.12,-1350.5 66.12,-1350.5 66.12,-1338.5 66.12,-1338.5 66.12,-1332.5 72.12,-1326.5 78.12,-1326.5 78.12,-1326.5 145.12,-1326.5 145.12,-1326.5 151.12,-1326.5 157.12,-1332.5 157.12,-1338.5 157.12,-1338.5 157.12,-1350.5 157.12,-1350.5 157.12,-1356.5 151.12,-1362.5 145.12,-1362.5"/>
<text xml:space="preserve" text-anchor="middle" x="111.62" y="-1347.55" font-family="Times New Roman,serif" font-size="11.00" fill="#ffffff">Initial Inspection</text>
<text xml:space="preserve" text-anchor="middle" x="111.62" y="-1334.05" font-family="Times New Roman,serif" font-size="11.00" fill="#ffffff">Shape 2000 x 18</text>
</g>
<!-- Load&#45;&gt;Inspect -->
<g id="edge2" class="edge">
<title>Load&#45;&gt;Inspect</title>
<path fill="none" stroke="#475569" stroke-width="1.6" d="M111.62,-1427.25C111.62,-1412.44 111.62,-1390.8 111.62,-1373.5"/>
<polygon fill="#475569" stroke="#475569" stroke-width="1.6" points="111.63,-1364.83 115.68,-1373.83 111.93,-1367.38 111.93,-1373.83 111.63,-1373.83 111.33,-1373.83 111.33,-1367.38 107.58,-1373.83 111.63,-1364.83"/>
</g>
<!-- Missing -->
<g id="node4" class="node">
<title>Missing</title>
<path fill="#ff9800" stroke="#94a3b8" stroke-width="2" d="M99.93,-1258.81C99.93,-1258.81 45.08,-1246.19 45.08,-1246.19 39.23,-1244.84 39.23,-1242.15 45.08,-1240.81 45.08,-1240.81 99.93,-1228.19 99.93,-1228.19 105.78,-1226.84 117.47,-1226.84 123.32,-1228.19 123.32,-1228.19 178.17,-1240.81 178.17,-1240.81 184.02,-1242.15 184.02,-1244.84 178.17,-1246.19 178.17,-1246.19 123.32,-1258.81 123.32,-1258.81 117.47,-1260.15 105.78,-1260.15 99.93,-1258.81"/>
<text xml:space="preserve" text-anchor="middle" x="111.62" y="-1239.8" font-family="Times New Roman,serif" font-size="11.00" fill="#ffffff">Missing Values?</text>
</g>
<!-- Inspect&#45;&gt;Missing -->
<g id="edge3" class="edge">
<title>Inspect&#45;&gt;Missing</title>
<path fill="none" stroke="#475569" stroke-width="1.6" d="M111.62,-1326.25C111.62,-1311.44 111.62,-1289.8 111.62,-1272.5"/>
<polygon fill="#475569" stroke="#475569" stroke-width="1.6" points="111.63,-1263.83 115.68,-1272.83 111.93,-1266.38 111.93,-1272.83 111.63,-1272.83 111.33,-1272.83 111.33,-1266.38 107.58,-1272.83 111.63,-1263.83"/>
</g>
<!-- Impute -->
<g id="node5" class="node">
<title>Impute</title>
<path fill="#ffcc80" stroke="#94a3b8" stroke-width="2" d="M88.75,-1160.5C88.75,-1160.5 28.5,-1160.5 28.5,-1160.5 22.5,-1160.5 16.5,-1154.5 16.5,-1148.5 16.5,-1148.5 16.5,-1136.5 16.5,-1136.5 16.5,-1130.5 22.5,-1124.5 28.5,-1124.5 28.5,-1124.5 88.75,-1124.5 88.75,-1124.5 94.75,-1124.5 100.75,-1130.5 100.75,-1136.5 100.75,-1136.5 100.75,-1148.5 100.75,-1148.5 100.75,-1154.5 94.75,-1160.5 88.75,-1160.5"/>
<text xml:space="preserve" text-anchor="middle" x="58.62" y="-1145.55" font-family="Times New Roman,serif" font-size="11.00" fill="#0f172a">Median / Mode</text>
<text xml:space="preserve" text-anchor="middle" x="58.62" y="-1132.05" font-family="Times New Roman,serif" font-size="11.00" fill="#0f172a">Imputation</text>
</g>
<!-- Missing&#45;&gt;Impute -->
<g id="edge4" class="edge">
<title>Missing&#45;&gt;Impute</title>
<path fill="none" stroke="#475569" stroke-width="1.6" d="M103.34,-1227.03C95.24,-1211.89 82.72,-1188.51 72.99,-1170.33"/>
<polygon fill="#475569" stroke="#475569" stroke-width="1.6" points="68.84,-1162.57 76.66,-1168.6 70.31,-1164.68 73.35,-1170.37 73.09,-1170.51 72.82,-1170.65 69.78,-1164.96 69.51,-1172.42 68.84,-1162.57"/>
</g>
<!-- Duplicates -->
<g id="node6" class="node">
<title>Duplicates</title>
<path fill="#ff9800" stroke="#94a3b8" stroke-width="2" d="M99.85,-1057.2C99.85,-1057.2 31.28,-1043.8 31.28,-1043.8 25.39,-1042.65 25.39,-1040.35 31.28,-1039.2 31.28,-1039.2 99.85,-1025.8 99.85,-1025.8 105.74,-1024.65 117.51,-1024.65 123.4,-1025.8 123.4,-1025.8 191.97,-1039.2 191.97,-1039.2 197.86,-1040.35 197.86,-1042.65 191.97,-1043.8 191.97,-1043.8 123.4,-1057.2 123.4,-1057.2 117.51,-1058.35 105.74,-1058.35 99.85,-1057.2"/>
<text xml:space="preserve" text-anchor="middle" x="111.62" y="-1037.8" font-family="Times New Roman,serif" font-size="11.00" fill="#ffffff">Duplicate Records?</text>
</g>
<!-- Missing&#45;&gt;Duplicates -->
<g id="edge6" class="edge">
<title>Missing&#45;&gt;Duplicates</title>
<path fill="none" stroke="#475569" stroke-width="1.6" d="M114.51,-1225.92C117.23,-1209.4 121.1,-1183.28 122.62,-1160.5 124.7,-1129.45 120.48,-1093.9 116.68,-1070"/>
<polygon fill="#475569" stroke="#475569" stroke-width="1.6" points="115.21,-1061.2 120.69,-1069.41 115.92,-1063.67 116.99,-1070.03 116.7,-1070.08 116.4,-1070.13 115.33,-1063.77 112.7,-1070.75 115.21,-1061.2"/>
</g>
<!-- Impute&#45;&gt;Duplicates -->
<g id="edge5" class="edge">
<title>Impute&#45;&gt;Duplicates</title>
<path fill="none" stroke="#475569" stroke-width="1.6" d="M67.86,-1124.25C76.26,-1108.55 88.78,-1085.17 98.28,-1067.43"/>
<polygon fill="#475569" stroke="#475569" stroke-width="1.6" points="102.28,-1059.96 101.6,-1069.8 101.34,-1062.35 98.29,-1068.03 98.03,-1067.89 97.77,-1067.75 100.81,-1062.06 94.46,-1065.98 102.28,-1059.96"/>
</g>
<!-- Remove -->
<g id="node7" class="node">
<title>Remove</title>
<path fill="#ffe082" stroke="#94a3b8" stroke-width="2" d="M93.5,-958.5C93.5,-958.5 13.75,-958.5 13.75,-958.5 7.75,-958.5 1.75,-952.5 1.75,-946.5 1.75,-946.5 1.75,-934.5 1.75,-934.5 1.75,-928.5 7.75,-922.5 13.75,-922.5 13.75,-922.5 93.5,-922.5 93.5,-922.5 99.5,-922.5 105.5,-928.5 105.5,-934.5 105.5,-934.5 105.5,-946.5 105.5,-946.5 105.5,-952.5 99.5,-958.5 93.5,-958.5"/>
<text xml:space="preserve" text-anchor="middle" x="53.62" y="-943.55" font-family="Times New Roman,serif" font-size="11.00" fill="#0f172a">Remove Duplicates</text>
<text xml:space="preserve" text-anchor="middle" x="53.62" y="-930.05" font-family="Times New Roman,serif" font-size="11.00" fill="#0f172a">Keep First</text>
</g>
<!-- Duplicates&#45;&gt;Remove -->
<g id="edge7" class="edge">
<title>Duplicates&#45;&gt;Remove</title>
<path fill="none" stroke="#475569" stroke-width="1.6" d="M102.56,-1025.03C93.65,-1009.82 79.87,-986.29 69.2,-968.08"/>
<polygon fill="#475569" stroke="#475569" stroke-width="1.6" points="64.78,-960.54 72.82,-966.26 66.33,-962.59 69.59,-968.15 69.33,-968.3 69.07,-968.45 65.81,-962.89 65.83,-970.35 64.78,-960.54"/>
</g>
<!-- Encode -->
<g id="node8" class="node">
<title>Encode</title>
<path fill="#ffe0b2" stroke="#94a3b8" stroke-width="2" d="M180.75,-857.5C180.75,-857.5 42.5,-857.5 42.5,-857.5 36.5,-857.5 30.5,-851.5 30.5,-845.5 30.5,-845.5 30.5,-833.5 30.5,-833.5 30.5,-827.5 36.5,-821.5 42.5,-821.5 42.5,-821.5 180.75,-821.5 180.75,-821.5 186.75,-821.5 192.75,-827.5 192.75,-833.5 192.75,-833.5 192.75,-845.5 192.75,-845.5 192.75,-851.5 186.75,-857.5 180.75,-857.5"/>
<text xml:space="preserve" text-anchor="middle" x="111.62" y="-842.55" font-family="Times New Roman,serif" font-size="11.00" fill="#0f172a">Encode Categorical</text>
<text xml:space="preserve" text-anchor="middle" x="111.62" y="-829.05" font-family="Times New Roman,serif" font-size="11.00" fill="#0f172a">Gender Label, Symptoms Binary</text>
</g>
<!-- Duplicates&#45;&gt;Encode -->
<g id="edge9" class="edge">
<title>Duplicates&#45;&gt;Encode</title>
<path fill="none" stroke="#475569" stroke-width="1.6" d="M115.56,-1023.97C119.26,-1007.5 124.55,-981.41 126.62,-958.5 129.44,-927.43 123.71,-891.93 118.54,-868.06"/>
<polygon fill="#475569" stroke="#475569" stroke-width="1.6" points="116.59,-859.55 122.55,-867.42 117.46,-861.97 118.89,-868.26 118.6,-868.33 118.31,-868.39 116.87,-862.11 114.65,-869.23 116.59,-859.55"/>
</g>
<!-- Remove&#45;&gt;Encode -->
<g id="edge8" class="edge">
<title>Remove&#45;&gt;Encode</title>
<path fill="none" stroke="#475569" stroke-width="1.6" d="M63.73,-922.25C72.66,-907.01 85.81,-884.55 96.08,-867.03"/>
<polygon fill="#475569" stroke="#475569" stroke-width="1.6" points="100.46,-859.56 99.4,-869.37 99.43,-861.91 96.17,-867.48 95.91,-867.32 95.65,-867.17 98.91,-861.61 92.41,-865.28 100.46,-859.56"/>
</g>
<!-- Outliers -->
<g id="node9" class="node">
<title>Outliers</title>
<path fill="#ff9800" stroke="#94a3b8" stroke-width="2" d="M99.97,-753.65C99.97,-753.65 49.67,-741.35 49.67,-741.35 43.84,-739.92 43.84,-737.07 49.67,-735.65 49.67,-735.65 99.97,-723.35 99.97,-723.35 105.8,-721.92 117.45,-721.92 123.28,-723.35 123.28,-723.35 173.58,-735.65 173.58,-735.65 179.41,-737.07 179.41,-739.92 173.58,-741.35 173.58,-741.35 123.28,-753.65 123.28,-753.65 117.45,-755.07 105.8,-755.07 99.97,-753.65"/>
<text xml:space="preserve" text-anchor="middle" x="111.62" y="-734.8" font-family="Times New Roman,serif" font-size="11.00" fill="#ffffff">Check Outliers</text>
</g>
<!-- Encode&#45;&gt;Outliers -->
<g id="edge10" class="edge">
<title>Encode&#45;&gt;Outliers</title>
<path fill="none" stroke="#475569" stroke-width="1.6" d="M111.62,-821.25C111.62,-806.44 111.62,-784.8 111.62,-767.5"/>
<polygon fill="#475569" stroke="#475569" stroke-width="1.6" points="111.63,-758.83 115.68,-767.83 111.93,-761.38 111.93,-767.83 111.63,-767.83 111.33,-767.83 111.33,-761.38 107.58,-767.83 111.63,-758.83"/>
</g>
<!-- Handle -->
<g id="node10" class="node">
<title>Handle</title>
<path fill="#ffd180" stroke="#94a3b8" stroke-width="2" d="M93.25,-655.5C93.25,-655.5 12,-655.5 12,-655.5 6,-655.5 0,-649.5 0,-643.5 0,-643.5 0,-631.5 0,-631.5 0,-625.5 6,-619.5 12,-619.5 12,-619.5 93.25,-619.5 93.25,-619.5 99.25,-619.5 105.25,-625.5 105.25,-631.5 105.25,-631.5 105.25,-643.5 105.25,-643.5 105.25,-649.5 99.25,-655.5 93.25,-655.5"/>
<text xml:space="preserve" text-anchor="middle" x="52.62" y="-640.55" font-family="Times New Roman,serif" font-size="11.00" fill="#0f172a">Handle Outliers</text>
<text xml:space="preserve" text-anchor="middle" x="52.62" y="-627.05" font-family="Times New Roman,serif" font-size="11.00" fill="#0f172a">IQR / Winsorization</text>
</g>
<!-- Outliers&#45;&gt;Handle -->
<g id="edge11" class="edge">
<title>Outliers&#45;&gt;Handle</title>
<path fill="none" stroke="#475569" stroke-width="1.6" d="M102.66,-722.46C93.59,-707.24 79.38,-683.38 68.41,-664.98"/>
<polygon fill="#475569" stroke="#475569" stroke-width="1.6" points="63.86,-657.35 71.95,-663.01 65.42,-659.39 68.73,-664.93 68.47,-665.08 68.21,-665.23 64.91,-659.69 64.99,-667.15 63.86,-657.35"/>
</g>
<!-- Scale -->
<g id="node11" class="node">
<title>Scale</title>
<path fill="#b3e5fc" stroke="#94a3b8" stroke-width="2" d="M142.5,-554.5C142.5,-554.5 80.75,-554.5 80.75,-554.5 74.75,-554.5 68.75,-548.5 68.75,-542.5 68.75,-542.5 68.75,-530.5 68.75,-530.5 68.75,-524.5 74.75,-518.5 80.75,-518.5 80.75,-518.5 142.5,-518.5 142.5,-518.5 148.5,-518.5 154.5,-524.5 154.5,-530.5 154.5,-530.5 154.5,-542.5 154.5,-542.5 154.5,-548.5 148.5,-554.5 142.5,-554.5"/>
<text xml:space="preserve" text-anchor="middle" x="111.62" y="-539.55" font-family="Times New Roman,serif" font-size="11.00" fill="#0f172a">Feature Scaling</text>
<text xml:space="preserve" text-anchor="middle" x="111.62" y="-526.05" font-family="Times New Roman,serif" font-size="11.00" fill="#0f172a">StandardScaler</text>
</g>
<!-- Outliers&#45;&gt;Scale -->
<g id="edge13" class="edge">
<title>Outliers&#45;&gt;Scale</title>
<path fill="none" stroke="#475569" stroke-width="1.6" d="M115.56,-720.97C119.26,-704.5 124.55,-678.41 126.62,-655.5 129.44,-624.43 123.71,-588.93 118.54,-565.06"/>
<polygon fill="#475569" stroke="#475569" stroke-width="1.6" points="116.59,-556.55 122.55,-564.42 117.46,-558.97 118.89,-565.26 118.6,-565.33 118.31,-565.39 116.87,-559.11 114.65,-566.23 116.59,-556.55"/>
</g>
<!-- Handle&#45;&gt;Scale -->
<g id="edge12" class="edge">
<title>Handle&#45;&gt;Scale</title>
<path fill="none" stroke="#475569" stroke-width="1.6" d="M62.9,-619.25C71.98,-604.01 85.37,-581.55 95.81,-564.03"/>
<polygon fill="#475569" stroke="#475569" stroke-width="1.6" points="100.27,-556.55 99.14,-566.36 99.22,-558.9 95.92,-564.44 95.66,-564.28 95.4,-564.13 98.71,-558.59 92.18,-562.21 100.27,-556.55"/>
</g>
<!-- Split -->
<g id="node12" class="node">
<title>Split</title>
<path fill="#c5cae9" stroke="#94a3b8" stroke-width="2" d="M155.25,-453.5C155.25,-453.5 68,-453.5 68,-453.5 62,-453.5 56,-447.5 56,-441.5 56,-441.5 56,-429.5 56,-429.5 56,-423.5 62,-417.5 68,-417.5 68,-417.5 155.25,-417.5 155.25,-417.5 161.25,-417.5 167.25,-423.5 167.25,-429.5 167.25,-429.5 167.25,-441.5 167.25,-441.5 167.25,-447.5 161.25,-453.5 155.25,-453.5"/>
<text xml:space="preserve" text-anchor="middle" x="111.62" y="-438.55" font-family="Times New Roman,serif" font-size="11.00" fill="#0f172a">Data Splitting</text>
<text xml:space="preserve" text-anchor="middle" x="111.62" y="-425.05" font-family="Times New Roman,serif" font-size="11.00" fill="#0f172a">Train 80% / Test 20%</text>
</g>
<!-- Scale&#45;&gt;Split -->
<g id="edge14" class="edge">
<title>Scale&#45;&gt;Split</title>
<path fill="none" stroke="#475569" stroke-width="1.6" d="M111.62,-518.25C111.62,-503.44 111.62,-481.8 111.62,-464.5"/>
<polygon fill="#475569" stroke="#475569" stroke-width="1.6" points="111.63,-455.83 115.68,-464.83 111.93,-458.38 111.93,-464.83 111.63,-464.83 111.33,-464.83 111.33,-458.38 107.58,-464.83 111.63,-455.83"/>
</g>
<!-- Validate -->
<g id="node13" class="node">
<title>Validate</title>
<path fill="#d7ccc8" stroke="#94a3b8" stroke-width="2" d="M144.75,-352.5C144.75,-352.5 78.5,-352.5 78.5,-352.5 72.5,-352.5 66.5,-346.5 66.5,-340.5 66.5,-340.5 66.5,-328.5 66.5,-328.5 66.5,-322.5 72.5,-316.5 78.5,-316.5 78.5,-316.5 144.75,-316.5 144.75,-316.5 150.75,-316.5 156.75,-322.5 156.75,-328.5 156.75,-328.5 156.75,-340.5 156.75,-340.5 156.75,-346.5 150.75,-352.5 144.75,-352.5"/>
<text xml:space="preserve" text-anchor="middle" x="111.62" y="-337.55" font-family="Times New Roman,serif" font-size="11.00" fill="#0f172a">Cross&#45;Validation</text>
<text xml:space="preserve" text-anchor="middle" x="111.62" y="-324.05" font-family="Times New Roman,serif" font-size="11.00" fill="#0f172a">5&#45;Fold</text>
</g>
<!-- Split&#45;&gt;Validate -->
<g id="edge15" class="edge">
<title>Split&#45;&gt;Validate</title>
<path fill="none" stroke="#475569" stroke-width="1.6" d="M111.62,-417.25C111.62,-402.44 111.62,-380.8 111.62,-363.5"/>
<polygon fill="#475569" stroke="#475569" stroke-width="1.6" points="111.63,-354.83 115.68,-363.83 111.93,-357.38 111.93,-363.83 111.63,-363.83 111.33,-363.83 111.33,-357.38 107.58,-363.83 111.63,-354.83"/>
</g>
<!-- Balance -->
<g id="node14" class="node">
<title>Balance</title>
<path fill="#ff9800" stroke="#94a3b8" stroke-width="2" d="M99.89,-248.99C99.89,-248.99 39.17,-236.01 39.17,-236.01 33.3,-234.75 33.3,-232.24 39.17,-230.99 39.17,-230.99 99.89,-218.01 99.89,-218.01 105.76,-216.75 117.49,-216.75 123.36,-218.01 123.36,-218.01 184.08,-230.99 184.08,-230.99 189.95,-232.24 189.95,-234.75 184.08,-236.01 184.08,-236.01 123.36,-248.99 123.36,-248.99 117.49,-250.24 105.76,-250.24 99.89,-248.99"/>
<text xml:space="preserve" text-anchor="middle" x="111.62" y="-229.8" font-family="Times New Roman,serif" font-size="11.00" fill="#ffffff">Class Imbalance?</text>
</g>
<!-- Validate&#45;&gt;Balance -->
<g id="edge16" class="edge">
<title>Validate&#45;&gt;Balance</title>
<path fill="none" stroke="#475569" stroke-width="1.6" d="M111.62,-316.25C111.62,-301.44 111.62,-279.8 111.62,-262.5"/>
<polygon fill="#475569" stroke="#475569" stroke-width="1.6" points="111.63,-253.83 115.68,-262.83 111.93,-256.38 111.93,-262.83 111.63,-262.83 111.33,-262.83 111.33,-256.38 107.58,-262.83 111.63,-253.83"/>
</g>
<!-- SMOTE -->
<g id="node15" class="node">
<title>SMOTE</title>
<path fill="#ffe082" stroke="#94a3b8" stroke-width="2" d="M88.38,-150.5C88.38,-150.5 28.88,-150.5 28.88,-150.5 22.88,-150.5 16.88,-144.5 16.88,-138.5 16.88,-138.5 16.88,-126.5 16.88,-126.5 16.88,-120.5 22.88,-114.5 28.88,-114.5 28.88,-114.5 88.38,-114.5 88.38,-114.5 94.38,-114.5 100.38,-120.5 100.38,-126.5 100.38,-126.5 100.38,-138.5 100.38,-138.5 100.38,-144.5 94.38,-150.5 88.38,-150.5"/>
<text xml:space="preserve" text-anchor="middle" x="58.62" y="-128.8" font-family="Times New Roman,serif" font-size="11.00" fill="#0f172a">Apply SMOTE</text>
</g>
<!-- Balance&#45;&gt;SMOTE -->
<g id="edge17" class="edge">
<title>Balance&#45;&gt;SMOTE</title>
<path fill="none" stroke="#475569" stroke-width="1.6" d="M103.34,-217.03C95.24,-201.89 82.72,-178.51 72.99,-160.33"/>
<polygon fill="#475569" stroke="#475569" stroke-width="1.6" points="68.84,-152.57 76.66,-158.6 70.31,-154.68 73.35,-160.37 73.09,-160.51 72.82,-160.65 69.78,-154.96 69.51,-162.42 68.84,-152.57"/>
</g>
<!-- Ready -->
<g id="node16" class="node">
<title>Ready</title>
<ellipse fill="#4caf50" stroke="#94a3b8" stroke-width="2" cx="111.62" cy="-24.75" rx="78.67" ry="24.75"/>
<text xml:space="preserve" text-anchor="middle" x="111.62" y="-27.8" font-family="Times New Roman,serif" font-size="11.00" fill="#ffffff">Clean Dataset Ready</text>
<text xml:space="preserve" text-anchor="middle" x="111.62" y="-14.3" font-family="Times New Roman,serif" font-size="11.00" fill="#ffffff">for Training</text>
</g>
<!-- Balance&#45;&gt;Ready -->
<g id="edge19" class="edge">
<title>Balance&#45;&gt;Ready</title>
<path fill="none" stroke="#475569" stroke-width="1.6" d="M114.3,-215.59C116.76,-199.05 120.25,-173.12 121.62,-150.5 123.48,-120.03 120.28,-85.43 117.03,-60.42"/>
<polygon fill="#475569" stroke="#475569" stroke-width="1.6" points="115.81,-51.58 121.05,-59.94 116.45,-54.06 117.33,-60.45 117.04,-60.49 116.74,-60.53 115.86,-54.14 113.02,-61.04 115.81,-51.58"/>
</g>
<!-- SMOTE&#45;&gt;Ready -->
<g id="edge18" class="edge">
<title>SMOTE&#45;&gt;Ready</title>
<path fill="none" stroke="#475569" stroke-width="1.6" d="M67.38,-114.04C74.82,-99.19 85.72,-77.44 94.84,-59.25"/>
<polygon fill="#475569" stroke="#475569" stroke-width="1.6" points="98.81,-51.31 98.4,-61.17 97.94,-53.73 95.05,-59.49 94.78,-59.36 94.51,-59.23 97.4,-53.46 91.16,-57.55 98.81,-51.31"/>
</g>
</g>
</svg>
