<?xml version="1.0" encoding="UTF-8" standalone="no"?>
<!DOCTYPE svg PUBLIC "-//W3C//DTD SVG 1.1//EN"
 "http://www.w3.org/Graphics/SVG/1.1/DTD/svg11.dtd">
<!-- Generated by graphviz version 14.0.4 (20251115.1723)
 -->
<!-- Title: data_preprocessing Pages: 1 -->
<svg width="2285pt" height="370pt"
 viewBox="0.00 0.00 2285.00 370.00" xmlns="http://www.w3.org/2000/svg" xmlns:xlink="http://www.w3.org/1999/xlink">
<g id="graph0" class="graph" transform="scale(1 1) rotate(0) translate(50.4 319.4)">
<title>data_preprocessing</title>
<polygon fill="#f8fafc" stroke="none" points="-50.4,50.4 -50.4,-319.4 2234.9,-319.4 2234.9,50.4 -50.4,50.4"/>
<g id="clust1" class="cluster">
<title>cluster_raw</title>
<path fill="#ffcccc" stroke="#cbd5f5" stroke-width="2" d="M20,-8C20,-8 156.75,-8 156.75,-8 162.75,-8 168.75,-14 168.75,-20 168.75,-20 168.75,-249 168.75,-249 168.75,-255 162.75,-261 156.75,-261 156.75,-261 20,-261 20,-261 14,-261 8,-255 8,-249 8,-249 8,-20 8,-20 8,-14 14,-8 20,-8"/>
<text xml:space="preserve" text-anchor="middle" x="72.25" y="-244.65" font-family="Helvetica,sans-Serif" font-weight="bold" font-size="13.00" fill="#0f172a">RAW DATA INPUT</text>
</g>
<g id="clust2" class="cluster">
<title>cluster_validation</title>
<path fill="#ffffcc" stroke="#cbd5f5" stroke-width="2" d="M209.75,-8C209.75,-8 510.75,-8 510.75,-8 516.75,-8 522.75,-14 522.75,-20 522.75,-20 522.75,-249 522.75,-249 522.75,-255 516.75,-261 510.75,-261 510.75,-261 209.75,-261 209.75,-261 203.75,-261 197.75,-255 197.75,-249 197.75,-249 197.75,-20 197.75,-20 197.75,-14 203.75,-8 209.75,-8"/>
<text xml:space="preserve" text-anchor="middle" x="263.88" y="-244.65" font-family="Helvetica,sans-Serif" font-weight="bold" font-size="13.00" fill="#0f172a">DATA VALIDATION</text>
</g>
<g id="clust3" class="cluster">
<title>cluster_cleaning</title>
<path fill="#ccffcc" stroke="#cbd5f5" stroke-width="2" d="M563.75,-87C563.75,-87 1188.75,-87 1188.75,-87 1194.75,-87 1200.75,-93 1200.75,-99 1200.75,-99 1200.75,-170 1200.75,-170 1200.75,-176 1194.75,-182 1188.75,-182 1188.75,-182 563.75,-182 563.75,-182 557.75,-182 551.75,-176 551.75,-170 551.75,-170 551.75,-99 551.75,-99 551.75,-93 557.75,-87 563.75,-87"/>
<text xml:space="preserve" text-anchor="middle" x="613.38" y="-165.65" font-family="Helvetica,sans-Serif" font-weight="bold" font-size="13.00" fill="#0f172a">DATA CLEANING</text>
</g>
<g id="clust4" class="cluster">
<title>cluster_transform</title>
<path fill="#ccccff" stroke="#cbd5f5" stroke-width="2" d="M1241.75,-87C1241.75,-87 1797.75,-87 1797.75,-87 1803.75,-87 1809.75,-93 1809.75,-99 1809.75,-99 1809.75,-170 1809.75,-170 1809.75,-176 1803.75,-182 1797.75,-182 1797.75,-182 1241.75,-182 1241.75,-182 1235.75,-182 1229.75,-176 1229.75,-170 1229.75,-170 1229.75,-99 1229.75,-99 1229.75,-93 1235.75,-87 1241.75,-87"/>
<text xml:space="preserve" text-anchor="middle" x="1318.75" y="-165.65" font-family="Helvetica,sans-Serif" font-weight="bold" font-size="13.00" fill="#0f172a">DATA TRANSFORMATION</text>
</g>
<g id="clust5" class="cluster">
<title>cluster_output</title>
<path fill="#ffccff" stroke="#cbd5f5" stroke-width="2" d="M1850.75,-87C1850.75,-87 2164.5,-87 2164.5,-87 2170.5,-87 2176.5,-93 2176.5,-99 2176.5,-99 2176.5,-170 2176.5,-170 2176.5,-176 2170.5,-182 2164.5,-182 2164.5,-182 1850.75,-182 1850.75,-182 1844.75,-182 1838.75,-176 1838.75,-170 1838.75,-170 1838.75,-99 1838.75,-99 1838.75,-93 1844.75,-87 1850.75,-87"/>
<text xml:space="preserve" text-anchor="middle" x="1918" y="-165.65" font-family="Helvetica,sans-Serif" font-weight="bold" font-size="13.00" fill="#0f172a">CLEAN DATA OUTPUT</text>
</g>
<!-- A1 -->
<g id="node1" class="node">
<title>A1</title>
<path fill="#ffffff" stroke="#0f172a" stroke-width="2" d="M135,-62C135,-62 41.75,-62 41.75,-62 35.75,-62 29.75,-56 29.75,-50 29.75,-50 29.75,-38 29.75,-38 29.75,-32 35.75,-26 41.75,-26 41.75,-26 135,-26 135,-26 141,-26 147,-32 147,-38 147,-38 147,-50 147,-50 147,-56 141,-62 135,-62"/>
<text xml:space="preserve" text-anchor="middle" x="88.38" y="-40.3" font-family="Times New Roman,serif" font-size="11.00" fill="#0f172a">Dataset: 2000 Records</text>
</g>
<!-- B1 -->
<g id="node4" class="node">
<title>B1</title>
<path fill="#ffffff" stroke="#0f172a" stroke-width="2" d="M318.75,-62C318.75,-62 227.75,-62 227.75,-62 221.75,-62 215.75,-56 215.75,-50 215.75,-50 215.75,-38 215.75,-38 215.75,-32 221.75,-26 227.75,-26 227.75,-26 318.75,-26 318.75,-26 324.75,-26 330.75,-32 330.75,-38 330.75,-38 330.75,-50 330.75,-50 330.75,-56 324.75,-62 318.75,-62"/>
<text xml:space="preserve" text-anchor="middle" x="273.25" y="-40.3" font-family="Times New Roman,serif" font-size="11.00" fill="#0f172a">Check Missing Values</text>
</g>
<!-- A1&#45;&gt;B1 -->
<g id="edge1" class="edge">
<title>A1&#45;&gt;B1</title>
<path fill="none" stroke="#475569" stroke-width="1.6" d="M147.49,-44C165.67,-44 185.9,-44 204.67,-44"/>
<polygon fill="#475569" stroke="#475569" stroke-width="1.6" points="213.59,-44 204.59,-48.05 211.04,-44.3 204.59,-44.3 204.59,-44 204.59,-43.7 211.04,-43.7 204.59,-39.95 213.59,-44"/>
</g>
<!-- A2 -->
<g id="node2" class="node">
<title>A2</title>
<path fill="#ffffff" stroke="#0f172a" stroke-width="2" d="M138.75,-141C138.75,-141 38,-141 38,-141 32,-141 26,-135 26,-129 26,-129 26,-117 26,-117 26,-111 32,-105 38,-105 38,-105 138.75,-105 138.75,-105 144.75,-105 150.75,-111 150.75,-117 150.75,-117 150.75,-129 150.75,-129 150.75,-135 144.75,-141 138.75,-141"/>
<text xml:space="preserve" text-anchor="middle" x="88.38" y="-126.05" font-family="Times New Roman,serif" font-size="11.00" fill="#0f172a">17 Features</text>
<text xml:space="preserve" text-anchor="middle" x="88.38" y="-112.55" font-family="Times New Roman,serif" font-size="11.00" fill="#0f172a">Age, Gender, Symptoms</text>
</g>
<!-- B2 -->
<g id="node5" class="node">
<title>B2</title>
<path fill="#ffffff" stroke="#0f172a" stroke-width="2" d="M310.12,-141C310.12,-141 236.38,-141 236.38,-141 230.38,-141 224.38,-135 224.38,-129 224.38,-129 224.38,-117 224.38,-117 224.38,-111 230.38,-105 236.38,-105 236.38,-105 310.12,-105 310.12,-105 316.12,-105 322.12,-111 322.12,-117 322.12,-117 322.12,-129 322.12,-129 322.12,-135 316.12,-141 310.12,-141"/>
<text xml:space="preserve" text-anchor="middle" x="273.25" y="-119.3" font-family="Times New Roman,serif" font-size="11.00" fill="#0f172a">Check Data Types</text>
</g>
<!-- A2&#45;&gt;B2 -->
<g id="edge2" class="edge">
<title>A2&#45;&gt;B2</title>
<path fill="none" stroke="#475569" stroke-width="1.6" d="M151.03,-123C171.16,-123 193.44,-123 213.35,-123"/>
<polygon fill="#475569" stroke="#475569" stroke-width="1.6" points="222.2,-123 213.2,-127.05 219.64,-123.3 213.2,-123.3 213.2,-123 213.2,-122.7 219.64,-122.7 213.2,-118.95 222.2,-123"/>
</g>
<!-- A3 -->
<g id="node3" class="node">
<title>A3</title>
<path fill="#ffffff" stroke="#0f172a" stroke-width="2" d="M127.12,-220C127.12,-220 49.62,-220 49.62,-220 43.62,-220 37.62,-214 37.62,-208 37.62,-208 37.62,-196 37.62,-196 37.62,-190 43.62,-184 49.62,-184 49.62,-184 127.12,-184 127.12,-184 133.12,-184 139.12,-190 139.12,-196 139.12,-196 139.12,-208 139.12,-208 139.12,-214 133.12,-220 127.12,-220"/>
<text xml:space="preserve" text-anchor="middle" x="88.38" y="-205.05" font-family="Times New Roman,serif" font-size="11.00" fill="#0f172a">Target Variable</text>
<text xml:space="preserve" text-anchor="middle" x="88.38" y="-191.55" font-family="Times New Roman,serif" font-size="11.00" fill="#0f172a">Severe Malaria 0/1</text>
</g>
<!-- B3 -->
<g id="node6" class="node">
<title>B3</title>
<path fill="#ffffff" stroke="#0f172a" stroke-width="2" d="M309,-220C309,-220 237.5,-220 237.5,-220 231.5,-220 225.5,-214 225.5,-208 225.5,-208 225.5,-196 225.5,-196 225.5,-190 231.5,-184 237.5,-184 237.5,-184 309,-184 309,-184 315,-184 321,-190 321,-196 321,-196 321,-208 321,-208 321,-214 315,-220 309,-220"/>
<text xml:space="preserve" text-anchor="middle" x="273.25" y="-198.3" font-family="Times New Roman,serif" font-size="11.00" fill="#0f172a">Check Duplicates</text>
</g>
<!-- A3&#45;&gt;B3 -->
<g id="edge3" class="edge">
<title>A3&#45;&gt;B3</title>
<path fill="none" stroke="#475569" stroke-width="1.6" d="M139.35,-202C162.55,-202 190.27,-202 214.38,-202"/>
<polygon fill="#475569" stroke="#475569" stroke-width="1.6" points="223.22,-202 214.22,-206.05 220.67,-202.3 214.22,-202.3 214.22,-202 214.22,-201.7 220.67,-201.7 214.22,-197.95 223.22,-202"/>
</g>
<!-- B4 -->
<g id="node7" class="node">
<title>B4</title>
<path fill="#ffffff" stroke="#0f172a" stroke-width="2" d="M492.75,-141C492.75,-141 407.75,-141 407.75,-141 401.75,-141 395.75,-135 395.75,-129 395.75,-129 395.75,-117 395.75,-117 395.75,-111 401.75,-105 407.75,-105 407.75,-105 492.75,-105 492.75,-105 498.75,-105 504.75,-111 504.75,-117 504.75,-117 504.75,-129 504.75,-129 504.75,-135 498.75,-141 492.75,-141"/>
<text xml:space="preserve" text-anchor="middle" x="450.25" y="-119.3" font-family="Times New Roman,serif" font-size="11.00" fill="#0f172a">Verify Data Integrity</text>
</g>
<!-- B1&#45;&gt;B4 -->
<g id="edge4" class="edge">
<title>B1&#45;&gt;B4</title>
<path fill="none" stroke="#475569" stroke-width="1.6" d="M314.84,-62.32C339.73,-73.56 371.81,-88.04 398.39,-100.04"/>
<polygon fill="#475569" stroke="#475569" stroke-width="1.6" points="406.5,-103.7 396.63,-103.69 404.05,-102.92 398.17,-100.27 398.3,-100 398.42,-99.72 404.3,-102.38 399.96,-96.31 406.5,-103.7"/>
</g>
<!-- B2&#45;&gt;B4 -->
<g id="edge5" class="edge">
<title>B2&#45;&gt;B4</title>
<path fill="none" stroke="#475569" stroke-width="1.6" d="M322.53,-123C341.66,-123 363.93,-123 384.42,-123"/>
<polygon fill="#475569" stroke="#475569" stroke-width="1.6" points="393.32,-123 384.32,-127.05 390.77,-123.3 384.32,-123.3 384.32,-123 384.32,-122.7 390.77,-122.7 384.32,-118.95 393.32,-123"/>
</g>
<!-- B3&#45;&gt;B4 -->
<g id="edge6" class="edge">
<title>B3&#45;&gt;B4</title>
<path fill="none" stroke="#475569" stroke-width="1.6" d="M314.84,-183.68C339.73,-172.44 371.81,-157.96 398.39,-145.96"/>
<polygon fill="#475569" stroke="#475569" stroke-width="1.6" points="406.5,-142.3 399.96,-149.69 404.3,-143.62 398.42,-146.28 398.3,-146 398.17,-145.73 404.05,-143.08 396.63,-142.31 406.5,-142.3"/>
</g>
<!-- C1 -->
<g id="node8" class="node">
<title>C1</title>
<path fill="#ffffff" stroke="#0f172a" stroke-width="2" d="M676.5,-141C676.5,-141 581.75,-141 581.75,-141 575.75,-141 569.75,-135 569.75,-129 569.75,-129 569.75,-117 569.75,-117 569.75,-111 575.75,-105 581.75,-105 581.75,-105 676.5,-105 676.5,-105 682.5,-105 688.5,-111 688.5,-117 688.5,-117 688.5,-129 688.5,-129 688.5,-135 682.5,-141 676.5,-141"/>
<text xml:space="preserve" text-anchor="middle" x="629.12" y="-126.05" font-family="Times New Roman,serif" font-size="11.00" fill="#0f172a">Handle Missing Values</text>
<text xml:space="preserve" text-anchor="middle" x="629.12" y="-112.55" font-family="Times New Roman,serif" font-size="11.00" fill="#0f172a">Median / Mode</text>
</g>
<!-- B4&#45;&gt;C1 -->
<g id="edge7" class="edge">
<title>B4&#45;&gt;C1</title>
<path fill="none" stroke="#475569" stroke-width="1.6" d="M504.8,-123C521.8,-123 540.86,-123 558.81,-123"/>
<polygon fill="#475569" stroke="#475569" stroke-width="1.6" points="567.57,-123 558.57,-127.05 565.02,-123.3 558.57,-123.3 558.57,-123 558.57,-122.7 565.02,-122.7 558.57,-118.95 567.57,-123"/>
</g>
<!-- C2 -->
<g id="node9" class="node">
<title>C2</title>
<path fill="#ffffff" stroke="#0f172a" stroke-width="2" d="M845.25,-141C845.25,-141 765.5,-141 765.5,-141 759.5,-141 753.5,-135 753.5,-129 753.5,-129 753.5,-117 753.5,-117 753.5,-111 759.5,-105 765.5,-105 765.5,-105 845.25,-105 845.25,-105 851.25,-105 857.25,-111 857.25,-117 857.25,-117 857.25,-129 857.25,-129 857.25,-135 851.25,-141 845.25,-141"/>
<text xml:space="preserve" text-anchor="middle" x="805.38" y="-119.3" font-family="Times New Roman,serif" font-size="11.00" fill="#0f172a">Remove Duplicates</text>
</g>
<!-- C1&#45;&gt;C2 -->
<g id="edge8" class="edge">
<title>C1&#45;&gt;C2</title>
<path fill="none" stroke="#475569" stroke-width="1.6" d="M688.63,-123C705.91,-123 724.87,-123 742.36,-123"/>
<polygon fill="#475569" stroke="#475569" stroke-width="1.6" points="751.08,-123 742.08,-127.05 748.53,-123.3 742.08,-123.3 742.08,-123 742.08,-122.7 748.53,-122.7 742.08,-118.95 751.08,-123"/>
</g>
<!-- C3 -->
<g id="node10" class="node">
<title>C3</title>
<path fill="#ffffff" stroke="#0f172a" stroke-width="2" d="M1011.75,-141C1011.75,-141 934.25,-141 934.25,-141 928.25,-141 922.25,-135 922.25,-129 922.25,-129 922.25,-117 922.25,-117 922.25,-111 928.25,-105 934.25,-105 934.25,-105 1011.75,-105 1011.75,-105 1017.75,-105 1023.75,-111 1023.75,-117 1023.75,-117 1023.75,-129 1023.75,-129 1023.75,-135 1017.75,-141 1011.75,-141"/>
<text xml:space="preserve" text-anchor="middle" x="973" y="-119.3" font-family="Times New Roman,serif" font-size="11.00" fill="#0f172a">Fix Inconsistencies</text>
</g>
<!-- C2&#45;&gt;C3 -->
<g id="edge9" class="edge">
<title>C2&#45;&gt;C3</title>
<path fill="none" stroke="#475569" stroke-width="1.6" d="M857.42,-123C874.42,-123 893.53,-123 911.2,-123"/>
<polygon fill="#475569" stroke="#475569" stroke-width="1.6" points="920.03,-123 911.03,-127.05 917.48,-123.3 911.03,-123.3 911.03,-123 911.03,-122.7 917.48,-122.7 911.03,-118.95 920.03,-123"/>
</g>
<!-- C4 -->
<g id="node11" class="node">
<title>C4</title>
<path fill="#ffffff" stroke="#0f172a" stroke-width="2" d="M1170.75,-141C1170.75,-141 1100.75,-141 1100.75,-141 1094.75,-141 1088.75,-135 1088.75,-129 1088.75,-129 1088.75,-117 1088.75,-117 1088.75,-111 1094.75,-105 1100.75,-105 1100.75,-105 1170.75,-105 1170.75,-105 1176.75,-105 1182.75,-111 1182.75,-117 1182.75,-117 1182.75,-129 1182.75,-129 1182.75,-135 1176.75,-141 1170.75,-141"/>
<text xml:space="preserve" text-anchor="middle" x="1135.75" y="-119.3" font-family="Times New Roman,serif" font-size="11.00" fill="#0f172a">Outlier Detection</text>
</g>
<!-- C3&#45;&gt;C4 -->
<g id="edge10" class="edge">
<title>C3&#45;&gt;C4</title>
<path fill="none" stroke="#475569" stroke-width="1.6" d="M1023.98,-123C1041,-123 1060.15,-123 1077.69,-123"/>
<polygon fill="#475569" stroke="#475569" stroke-width="1.6" points="1086.41,-123 1077.41,-127.05 1083.86,-123.3 1077.41,-123.3 1077.41,-123 1077.41,-122.7 1083.86,-122.7 1077.41,-118.95 1086.41,-123"/>
</g>
<!-- D1 -->
<g id="node12" class="node">
<title>D1</title>
<path fill="#ffffff" stroke="#0f172a" stroke-width="2" d="M1321.5,-141C1321.5,-141 1259.75,-141 1259.75,-141 1253.75,-141 1247.75,-135 1247.75,-129 1247.75,-129 1247.75,-117 1247.75,-117 1247.75,-111 1253.75,-105 1259.75,-105 1259.75,-105 1321.5,-105 1321.5,-105 1327.5,-105 1333.5,-111 1333.5,-117 1333.5,-117 1333.5,-129 1333.5,-129 1333.5,-135 1327.5,-141 1321.5,-141"/>
<text xml:space="preserve" text-anchor="middle" x="1290.62" y="-126.05" font-family="Times New Roman,serif" font-size="11.00" fill="#0f172a">Label Encoding</text>
<text xml:space="preserve" text-anchor="middle" x="1290.62" y="-112.55" font-family="Times New Roman,serif" font-size="11.00" fill="#0f172a">Gender</text>
</g>
<!-- C4&#45;&gt;D1 -->
<g id="edge11" class="edge">
<title>C4&#45;&gt;D1</title>
<path fill="none" stroke="#475569" stroke-width="1.6" d="M1183.03,-123C1199.99,-123 1219.3,-123 1236.79,-123"/>
<polygon fill="#475569" stroke="#475569" stroke-width="1.6" points="1245.46,-123 1236.46,-127.05 1242.91,-123.3 1236.46,-123.3 1236.46,-123 1236.46,-122.7 1242.91,-122.7 1236.46,-118.95 1245.46,-123"/>
</g>
<!-- D2 -->
<g id="node13" class="node">
<title>D2</title>
<path fill="#ffffff" stroke="#0f172a" stroke-width="2" d="M1476.75,-141C1476.75,-141 1410.5,-141 1410.5,-141 1404.5,-141 1398.5,-135 1398.5,-129 1398.5,-129 1398.5,-117 1398.5,-117 1398.5,-111 1404.5,-105 1410.5,-105 1410.5,-105 1476.75,-105 1476.75,-105 1482.75,-105 1488.75,-111 1488.75,-117 1488.75,-117 1488.75,-129 1488.75,-129 1488.75,-135 1482.75,-141 1476.75,-141"/>
<text xml:space="preserve" text-anchor="middle" x="1443.62" y="-126.05" font-family="Times New Roman,serif" font-size="11.00" fill="#0f172a">Binary Encoding</text>
<text xml:space="preserve" text-anchor="middle" x="1443.62" y="-112.55" font-family="Times New Roman,serif" font-size="11.00" fill="#0f172a">Symptoms</text>
</g>
<!-- D1&#45;&gt;D2 -->
<g id="edge12" class="edge">
<title>D1&#45;&gt;D2</title>
<path fill="none" stroke="#475569" stroke-width="1.6" d="M1333.69,-123C1350.31,-123 1369.64,-123 1387.36,-123"/>
<polygon fill="#475569" stroke="#475569" stroke-width="1.6" points="1396.2,-123 1387.2,-127.05 1393.65,-123.3 1387.2,-123.3 1387.2,-123 1387.2,-122.7 1393.65,-122.7 1387.2,-118.95 1396.2,-123"/>
</g>
<!-- D3 -->
<g id="node14" class="node">
<title>D3</title>
<path fill="#ffffff" stroke="#0f172a" stroke-width="2" d="M1627.5,-141C1627.5,-141 1565.75,-141 1565.75,-141 1559.75,-141 1553.75,-135 1553.75,-129 1553.75,-129 1553.75,-117 1553.75,-117 1553.75,-111 1559.75,-105 1565.75,-105 1565.75,-105 1627.5,-105 1627.5,-105 1633.5,-105 1639.5,-111 1639.5,-117 1639.5,-117 1639.5,-129 1639.5,-129 1639.5,-135 1633.5,-141 1627.5,-141"/>
<text xml:space="preserve" text-anchor="middle" x="1596.62" y="-126.05" font-family="Times New Roman,serif" font-size="11.00" fill="#0f172a">Feature Scaling</text>
<text xml:space="preserve" text-anchor="middle" x="1596.62" y="-112.55" font-family="Times New Roman,serif" font-size="11.00" fill="#0f172a">StandardScaler</text>
</g>
<!-- D2&#45;&gt;D3 -->
<g id="edge13" class="edge">
<title>D2&#45;&gt;D3</title>
<path fill="none" stroke="#475569" stroke-width="1.6" d="M1489.11,-123C1505.9,-123 1525.16,-123 1542.65,-123"/>
<polygon fill="#475569" stroke="#475569" stroke-width="1.6" points="1551.32,-123 1542.32,-127.05 1548.77,-123.3 1542.32,-123.3 1542.32,-123 1542.32,-122.7 1548.77,-122.7 1542.32,-118.95 1551.32,-123"/>
</g>
<!-- D4 -->
<g id="node15" class="node">
<title>D4</title>
<path fill="#ffffff" stroke="#0f172a" stroke-width="2" d="M1779.75,-141C1779.75,-141 1716.5,-141 1716.5,-141 1710.5,-141 1704.5,-135 1704.5,-129 1704.5,-129 1704.5,-117 1704.5,-117 1704.5,-111 1710.5,-105 1716.5,-105 1716.5,-105 1779.75,-105 1779.75,-105 1785.75,-105 1791.75,-111 1791.75,-117 1791.75,-117 1791.75,-129 1791.75,-129 1791.75,-135 1785.75,-141 1779.75,-141"/>
<text xml:space="preserve" text-anchor="middle" x="1748.12" y="-126.05" font-family="Times New Roman,serif" font-size="11.00" fill="#0f172a">Normalization</text>
<text xml:space="preserve" text-anchor="middle" x="1748.12" y="-112.55" font-family="Times New Roman,serif" font-size="11.00" fill="#0f172a">Z&#45;score Method</text>
</g>
<!-- D3&#45;&gt;D4 -->
<g id="edge14" class="edge">
<title>D3&#45;&gt;D4</title>
<path fill="none" stroke="#475569" stroke-width="1.6" d="M1639.67,-123C1656.33,-123 1675.7,-123 1693.36,-123"/>
<polygon fill="#475569" stroke="#475569" stroke-width="1.6" points="1702.15,-123 1693.15,-127.05 1699.6,-123.3 1693.15,-123.3 1693.15,-123 1693.15,-122.7 1699.6,-122.7 1693.15,-118.95 1702.15,-123"/>
</g>
<!-- E1 -->
<g id="node16" class="node">
<title>E1</title>
<path fill="#ffffff" stroke="#0f172a" stroke-width="2" d="M1950.75,-141C1950.75,-141 1868.75,-141 1868.75,-141 1862.75,-141 1856.75,-135 1856.75,-129 1856.75,-129 1856.75,-117 1856.75,-117 1856.75,-111 1862.75,-105 1868.75,-105 1868.75,-105 1950.75,-105 1950.75,-105 1956.75,-105 1962.75,-111 1962.75,-117 1962.75,-117 1962.75,-129 1962.75,-129 1962.75,-135 1956.75,-141 1950.75,-141"/>
<text xml:space="preserve" text-anchor="middle" x="1909.75" y="-126.05" font-family="Times New Roman,serif" font-size="11.00" fill="#0f172a">Processed Dataset</text>
<text xml:space="preserve" text-anchor="middle" x="1909.75" y="-112.55" font-family="Times New Roman,serif" font-size="11.00" fill="#0f172a">2000 Clean Records</text>
</g>
<!-- D4&#45;&gt;E1 -->
<g id="edge15" class="edge">
<title>D4&#45;&gt;E1</title>
<path fill="none" stroke="#475569" stroke-width="1.6" d="M1791.9,-123C1808.42,-123 1827.66,-123 1845.7,-123"/>
<polygon fill="#475569" stroke="#475569" stroke-width="1.6" points="1854.5,-123 1845.5,-127.05 1851.95,-123.3 1845.5,-123.3 1845.5,-123 1845.5,-122.7 1851.95,-122.7 1845.5,-118.95 1854.5,-123"/>
</g>
<!-- E2 -->
<g id="node17" class="node">
<title>E2</title>
<path fill="#ffffff" stroke="#0f172a" stroke-width="2" d="M2146.5,-141C2146.5,-141 2039.75,-141 2039.75,-141 2033.75,-141 2027.75,-135 2027.75,-129 2027.75,-129 2027.75,-117 2027.75,-117 2027.75,-111 2033.75,-105 2039.75,-105 2039.75,-105 2146.5,-105 2146.5,-105 2152.5,-105 2158.5,-111 2158.5,-117 2158.5,-117 2158.5,-129 2158.5,-129 2158.5,-135 2152.5,-141 2146.5,-141"/>
<text xml:space="preserve" text-anchor="middle" x="2093.12" y="-119.3" font-family="Times New Roman,serif" font-size="11.00" fill="#0f172a">Ready for Model Training</text>
</g>
<!-- E1&#45;&gt;E2 -->
<g id="edge16" class="edge">
<title>E1&#45;&gt;E2</title>
<path fill="none" stroke="#475569" stroke-width="1.6" d="M1963.21,-123C1979.92,-123 1998.76,-123 2016.76,-123"/>
<polygon fill="#475569" stroke="#475569" stroke-width="1.6" points="2025.59,-123 2016.59,-127.05 2023.04,-123.3 2016.59,-123.3 2016.59,-123 2016.59,-122.7 2023.04,-122.7 2016.59,-118.95 2025.59,-123"/>
</g>
</g>
</svg>
