<?xml version="1.0" encoding="UTF-8" standalone="no"?>
<!DOCTYPE svg PUBLIC "-//W3C//DTD SVG 1.1//EN"
 "http://www.w3.org/Graphics/SVG/1.1/DTD/svg11.dtd">
<!-- Generated by graphviz version 14.0.4 (20251115.1723)
 -->
<!-- Title: feature_engineering Pages: 1 -->
<svg width="442pt" height="1533pt"
 viewBox="0.00 0.00 442.00 1533.00" xmlns="http://www.w3.org/2000/svg" xmlns:xlink="http://www.w3.org/1999/xlink">
<g id="graph0" class="graph" transform="scale(1 1) rotate(0) translate(50.4 1482.4)">
<title>feature_engineering</title>
<polygon fill="#f8fafc" stroke="none" points="-50.4,50.4 -50.4,-1482.4 391.4,-1482.4 391.4,50.4 -50.4,50.4"/>
<g id="clust1" class="cluster">
<title>cluster_input</title>
<path fill="#e3f2fd" stroke="#cbd5f5" stroke-width="2" d="M48,-1329C48,-1329 321,-1329 321,-1329 327,-1329 333,-1335 333,-1341 333,-1341 333,-1412 333,-1412 333,-1418 327,-1424 321,-1424 321,-1424 48,-1424 48,-1424 42,-1424 36,-1418 36,-1412 36,-1412 36,-1341 36,-1341 36,-1335 42,-1329 48,-1329"/>
<text xml:space="preserve" text-anchor="middle" x="131.75" y="-1407.65" font-family="Helvetica,sans-Serif" font-weight="bold" font-size="13.00" fill="#0f172a">INPUT FEATURES (17 total)</text>
</g>
<g id="clust2" class="cluster">
<title>cluster_analysis</title>
<path fill="#fff9c4" stroke="#cbd5f5" stroke-width="2" d="M79,-1024C79,-1024 203,-1024 203,-1024 209,-1024 215,-1030 215,-1036 215,-1036 215,-1309 215,-1309 215,-1315 209,-1321 203,-1321 203,-1321 79,-1321 79,-1321 73,-1321 67,-1315 67,-1309 67,-1309 67,-1036 67,-1036 67,-1030 73,-1024 79,-1024"/>
<text xml:space="preserve" text-anchor="middle" x="141" y="-1304.65" font-family="Helvetica,sans-Serif" font-weight="bold" font-size="13.00" fill="#0f172a">FEATURE ANALYSIS</text>
</g>
<g id="clust3" class="cluster">
<title>cluster_selection</title>
<path fill="#f3e5f5" stroke="#cbd5f5" stroke-width="2" d="M66,-719C66,-719 216,-719 216,-719 222,-719 228,-725 228,-731 228,-731 228,-1004 228,-1004 228,-1010 222,-1016 216,-1016 216,-1016 66,-1016 66,-1016 60,-1016 54,-1010 54,-1004 54,-1004 54,-731 54,-731 54,-725 60,-719 66,-719"/>
<text xml:space="preserve" text-anchor="middle" x="133.25" y="-999.65" font-family="Helvetica,sans-Serif" font-weight="bold" font-size="13.00" fill="#0f172a">FEATURE SELECTION</text>
</g>
<g id="clust4" class="cluster">
<title>cluster_engineering</title>
<path fill="#c8e6c9" stroke="#cbd5f5" stroke-width="2" d="M20,-313C20,-313 171,-313 171,-313 177,-313 183,-319 183,-325 183,-325 183,-699 183,-699 183,-705 177,-711 171,-711 171,-711 20,-711 20,-711 14,-711 8,-705 8,-699 8,-699 8,-325 8,-325 8,-319 14,-313 20,-313"/>
<text xml:space="preserve" text-anchor="middle" x="95.5" y="-694.65" font-family="Helvetica,sans-Serif" font-weight="bold" font-size="13.00" fill="#0f172a">FEATURE ENGINEERING</text>
</g>
<g id="clust5" class="cluster">
<title>cluster_final</title>
<path fill="#ffccbc" stroke="#cbd5f5" stroke-width="2" d="M42,-8C42,-8 169,-8 169,-8 175,-8 181,-14 181,-20 181,-20 181,-293 181,-293 181,-299 175,-305 169,-305 169,-305 42,-305 42,-305 36,-305 30,-299 30,-293 30,-293 30,-20 30,-20 30,-14 36,-8 42,-8"/>
<text xml:space="preserve" text-anchor="middle" x="105.5" y="-288.65" font-family="Helvetica,sans-Serif" font-weight="bold" font-size="13.00" fill="#0f172a">FINAL FEATURE SET</text>
</g>
<!-- A1 -->
<g id="node1" class="node">
<title>A1</title>
<path fill="#ffffff" stroke="#0f172a" stroke-width="2" d="M160,-1383C160,-1383 66,-1383 66,-1383 60,-1383 54,-1377 54,-1371 54,-1371 54,-1359 54,-1359 54,-1353 60,-1347 66,-1347 66,-1347 160,-1347 160,-1347 166,-1347 172,-1353 172,-1359 172,-1359 172,-1371 172,-1371 172,-1377 166,-1383 160,-1383"/>
<text xml:space="preserve" text-anchor="middle" x="113" y="-1368.05" font-family="Times New Roman,serif" font-size="11.00" fill="#0f172a">Demographics</text>
<text xml:space="preserve" text-anchor="middle" x="113" y="-1354.55" font-family="Times New Roman,serif" font-size="11.00" fill="#0f172a">Age 3&#45;77, Gender M/F</text>
</g>
<!-- B1 -->
<g id="node3" class="node">
<title>B1</title>
<path fill="#ffffff" stroke="#0f172a" stroke-width="2" d="M183.12,-1280C183.12,-1280 98.88,-1280 98.88,-1280 92.88,-1280 86.88,-1274 86.88,-1268 86.88,-1268 86.88,-1256 86.88,-1256 86.88,-1250 92.88,-1244 98.88,-1244 98.88,-1244 183.12,-1244 183.12,-1244 189.12,-1244 195.12,-1250 195.12,-1256 195.12,-1256 195.12,-1268 195.12,-1268 195.12,-1274 189.12,-1280 183.12,-1280"/>
<text xml:space="preserve" text-anchor="middle" x="141" y="-1265.05" font-family="Times New Roman,serif" font-size="11.00" fill="#0f172a">Statistical Analysis</text>
<text xml:space="preserve" text-anchor="middle" x="141" y="-1251.55" font-family="Times New Roman,serif" font-size="11.00" fill="#0f172a">Mean, Median, STD</text>
</g>
<!-- A1&#45;&gt;B1 -->
<g id="edge1" class="edge">
<title>A1&#45;&gt;B1</title>
<path fill="none" stroke="#475569" stroke-width="1.6" d="M117.75,-1346.87C122.01,-1331.49 128.35,-1308.63 133.33,-1290.66"/>
<polygon fill="#475569" stroke="#475569" stroke-width="1.6" points="135.71,-1282.1 137.2,-1291.85 135.31,-1284.63 133.59,-1290.85 133.3,-1290.77 133.01,-1290.69 134.74,-1284.47 129.4,-1289.69 135.71,-1282.1"/>
</g>
<!-- A2 -->
<g id="node2" class="node">
<title>A2</title>
<path fill="#ffffff" stroke="#0f172a" stroke-width="2" d="M303.38,-1383C303.38,-1383 226.62,-1383 226.62,-1383 220.62,-1383 214.62,-1377 214.62,-1371 214.62,-1371 214.62,-1359 214.62,-1359 214.62,-1353 220.62,-1347 226.62,-1347 226.62,-1347 303.38,-1347 303.38,-1347 309.38,-1347 315.38,-1353 315.38,-1359 315.38,-1359 315.38,-1371 315.38,-1371 315.38,-1377 309.38,-1383 303.38,-1383"/>
<text xml:space="preserve" text-anchor="middle" x="265" y="-1368.05" font-family="Times New Roman,serif" font-size="11.00" fill="#0f172a">Clinical Symptoms</text>
<text xml:space="preserve" text-anchor="middle" x="265" y="-1354.55" font-family="Times New Roman,serif" font-size="11.00" fill="#0f172a">15 Binary Features</text>
</g>
<!-- A2&#45;&gt;B1 -->
<g id="edge2" class="edge">
<title>A2&#45;&gt;B1</title>
<path fill="none" stroke="#475569" stroke-width="1.6" d="M243.68,-1346.64C223.54,-1330.23 193.15,-1305.48 170.65,-1287.15"/>
<polygon fill="#475569" stroke="#475569" stroke-width="1.6" points="163.96,-1281.71 173.5,-1284.25 166.13,-1283.08 171.13,-1287.16 170.94,-1287.39 170.75,-1287.62 165.75,-1283.55 168.39,-1290.53 163.96,-1281.71"/>
</g>
<!-- B2 -->
<g id="node4" class="node">
<title>B2</title>
<path fill="#ffffff" stroke="#0f172a" stroke-width="2" d="M185.38,-1179C185.38,-1179 96.62,-1179 96.62,-1179 90.62,-1179 84.62,-1173 84.62,-1167 84.62,-1167 84.62,-1155 84.62,-1155 84.62,-1149 90.62,-1143 96.62,-1143 96.62,-1143 185.38,-1143 185.38,-1143 191.38,-1143 197.38,-1149 197.38,-1155 197.38,-1155 197.38,-1167 197.38,-1167 197.38,-1173 191.38,-1179 185.38,-1179"/>
<text xml:space="preserve" text-anchor="middle" x="141" y="-1164.05" font-family="Times New Roman,serif" font-size="11.00" fill="#0f172a">Correlation Matrix</text>
<text xml:space="preserve" text-anchor="middle" x="141" y="-1150.55" font-family="Times New Roman,serif" font-size="11.00" fill="#0f172a">Feature Relationships</text>
</g>
<!-- B1&#45;&gt;B2 -->
<g id="edge3" class="edge">
<title>B1&#45;&gt;B2</title>
<path fill="none" stroke="#475569" stroke-width="1.6" d="M141,-1243.76C141,-1228.94 141,-1207.3 141,-1190"/>
<polygon fill="#475569" stroke="#475569" stroke-width="1.6" points="141,-1181.33 145.05,-1190.33 141.3,-1183.88 141.3,-1190.33 141,-1190.33 140.7,-1190.33 140.7,-1183.88 136.95,-1190.33 141,-1181.33"/>
</g>
<!-- B3 -->
<g id="node5" class="node">
<title>B3</title>
<path fill="#ffffff" stroke="#0f172a" stroke-width="2" d="M180.5,-1078C180.5,-1078 101.5,-1078 101.5,-1078 95.5,-1078 89.5,-1072 89.5,-1066 89.5,-1066 89.5,-1054 89.5,-1054 89.5,-1048 95.5,-1042 101.5,-1042 101.5,-1042 180.5,-1042 180.5,-1042 186.5,-1042 192.5,-1048 192.5,-1054 192.5,-1054 192.5,-1066 192.5,-1066 192.5,-1072 186.5,-1078 180.5,-1078"/>
<text xml:space="preserve" text-anchor="middle" x="141" y="-1063.05" font-family="Times New Roman,serif" font-size="11.00" fill="#0f172a">Feature Importance</text>
<text xml:space="preserve" text-anchor="middle" x="141" y="-1049.55" font-family="Times New Roman,serif" font-size="11.00" fill="#0f172a">Scoring</text>
</g>
<!-- B2&#45;&gt;B3 -->
<g id="edge4" class="edge">
<title>B2&#45;&gt;B3</title>
<path fill="none" stroke="#475569" stroke-width="1.6" d="M141,-1142.76C141,-1127.94 141,-1106.3 141,-1089"/>
<polygon fill="#475569" stroke="#475569" stroke-width="1.6" points="141,-1080.33 145.05,-1089.33 141.3,-1082.88 141.3,-1089.33 141,-1089.33 140.7,-1089.33 140.7,-1082.88 136.95,-1089.33 141,-1080.33"/>
</g>
<!-- C1 -->
<g id="node6" class="node">
<title>C1</title>
<path fill="#ffffff" stroke="#0f172a" stroke-width="2" d="M198.12,-975C198.12,-975 83.88,-975 83.88,-975 77.88,-975 71.88,-969 71.88,-963 71.88,-963 71.88,-951 71.88,-951 71.88,-945 77.88,-939 83.88,-939 83.88,-939 198.12,-939 198.12,-939 204.12,-939 210.12,-945 210.12,-951 210.12,-951 210.12,-963 210.12,-963 210.12,-969 204.12,-975 198.12,-975"/>
<text xml:space="preserve" text-anchor="middle" x="141" y="-953.3" font-family="Times New Roman,serif" font-size="11.00" fill="#0f172a">Correlation Threshold &gt; 0.3</text>
</g>
<!-- B3&#45;&gt;C1 -->
<g id="edge5" class="edge">
<title>B3&#45;&gt;C1</title>
<path fill="none" stroke="#475569" stroke-width="1.6" d="M141,-1041.87C141,-1026.56 141,-1003.85 141,-985.92"/>
<polygon fill="#475569" stroke="#475569" stroke-width="1.6" points="141,-977.17 145.05,-986.17 141.3,-979.72 141.3,-986.17 141,-986.17 140.7,-986.17 140.7,-979.72 136.95,-986.17 141,-977.17"/>
</g>
<!-- C2 -->
<g id="node7" class="node">
<title>C2</title>
<path fill="#ffffff" stroke="#0f172a" stroke-width="2" d="M179.75,-874C179.75,-874 102.25,-874 102.25,-874 96.25,-874 90.25,-868 90.25,-862 90.25,-862 90.25,-850 90.25,-850 90.25,-844 96.25,-838 102.25,-838 102.25,-838 179.75,-838 179.75,-838 185.75,-838 191.75,-844 191.75,-850 191.75,-850 191.75,-862 191.75,-862 191.75,-868 185.75,-874 179.75,-874"/>
<text xml:space="preserve" text-anchor="middle" x="141" y="-852.3" font-family="Times New Roman,serif" font-size="11.00" fill="#0f172a">Clinical Relevance</text>
</g>
<!-- C1&#45;&gt;C2 -->
<g id="edge6" class="edge">
<title>C1&#45;&gt;C2</title>
<path fill="none" stroke="#475569" stroke-width="1.6" d="M141,-938.76C141,-923.94 141,-902.3 141,-885"/>
<polygon fill="#475569" stroke="#475569" stroke-width="1.6" points="141,-876.33 145.05,-885.33 141.3,-878.88 141.3,-885.33 141,-885.33 140.7,-885.33 140.7,-878.88 136.95,-885.33 141,-876.33"/>
</g>
<!-- F -->
<g id="node16" class="node">
<title>F</title>
<polygon fill="#fbe9e7" stroke="#94a3b8" points="251,-670 200.53,-652 251,-634 301.47,-652 251,-670"/>
<text xml:space="preserve" text-anchor="middle" x="251" y="-648.3" font-family="Times New Roman,serif" font-size="11.00" fill="#0f172a">Excluded</text>
</g>
<!-- C1&#45;&gt;F -->
<g id="edge15" class="edge">
<title>C1&#45;&gt;F</title>
<path fill="none" stroke="#ef4444" stroke-width="1.6" stroke-dasharray="5,2" d="M160.77,-938.76C177.18,-923.38 199.87,-899.41 213,-874 245.74,-810.64 251.08,-724.78 251.47,-681.08"/>
<polygon fill="#ef4444" stroke="#ef4444" stroke-width="1.6" points="251.47,-672.12 255.52,-681.12 251.77,-674.67 251.77,-681.12 251.47,-681.12 251.17,-681.12 251.17,-674.67 247.42,-681.12 251.47,-672.12"/>
</g>
<!-- C3 -->
<g id="node8" class="node">
<title>C3</title>
<path fill="#ffffff" stroke="#0f172a" stroke-width="2" d="M157.5,-773C157.5,-773 84.5,-773 84.5,-773 78.5,-773 72.5,-767 72.5,-761 72.5,-761 72.5,-749 72.5,-749 72.5,-743 78.5,-737 84.5,-737 84.5,-737 157.5,-737 157.5,-737 163.5,-737 169.5,-743 169.5,-749 169.5,-749 169.5,-761 169.5,-761 169.5,-767 163.5,-773 157.5,-773"/>
<text xml:space="preserve" text-anchor="middle" x="121" y="-751.3" font-family="Times New Roman,serif" font-size="11.00" fill="#0f172a">Variance Analysis</text>
</g>
<!-- C2&#45;&gt;C3 -->
<g id="edge7" class="edge">
<title>C2&#45;&gt;C3</title>
<path fill="none" stroke="#475569" stroke-width="1.6" d="M137.52,-837.76C134.52,-822.94 130.15,-801.3 126.66,-784"/>
<polygon fill="#475569" stroke="#475569" stroke-width="1.6" points="124.9,-775.29 130.65,-783.31 125.7,-777.73 126.97,-784.05 126.68,-784.11 126.39,-784.17 125.11,-777.85 122.71,-784.91 124.9,-775.29"/>
</g>
<!-- C2&#45;&gt;F -->
<g id="edge16" class="edge">
<title>C2&#45;&gt;F</title>
<path fill="none" stroke="#ef4444" stroke-width="1.6" stroke-dasharray="5,2" d="M152.16,-837.66C162.59,-821.23 178.4,-795.76 191,-773 208.97,-740.55 227.8,-702.03 239.47,-677.56"/>
<polygon fill="#ef4444" stroke="#ef4444" stroke-width="1.6" points="243.17,-669.75 242.97,-679.62 242.35,-672.18 239.58,-678.01 239.31,-677.88 239.04,-677.75 241.81,-671.92 235.65,-676.15 243.17,-669.75"/>
</g>
<!-- D1 -->
<g id="node9" class="node">
<title>D1</title>
<path fill="#ffffff" stroke="#0f172a" stroke-width="2" d="M145.25,-670C145.25,-670 64.75,-670 64.75,-670 58.75,-670 52.75,-664 52.75,-658 52.75,-658 52.75,-646 52.75,-646 52.75,-640 58.75,-634 64.75,-634 64.75,-634 145.25,-634 145.25,-634 151.25,-634 157.25,-640 157.25,-646 157.25,-646 157.25,-658 157.25,-658 157.25,-664 151.25,-670 145.25,-670"/>
<text xml:space="preserve" text-anchor="middle" x="105" y="-648.3" font-family="Times New Roman,serif" font-size="11.00" fill="#0f172a">Composite Features</text>
</g>
<!-- C3&#45;&gt;D1 -->
<g id="edge8" class="edge">
<title>C3&#45;&gt;D1</title>
<path fill="none" stroke="#475569" stroke-width="1.6" d="M118.29,-736.87C115.86,-721.56 112.26,-698.85 109.42,-680.92"/>
<polygon fill="#475569" stroke="#475569" stroke-width="1.6" points="108.03,-672.14 113.44,-680.4 108.73,-674.61 109.74,-680.99 109.44,-681.03 109.14,-681.08 108.14,-674.71 105.44,-681.67 108.03,-672.14"/>
</g>
<!-- C3&#45;&gt;F -->
<g id="edge17" class="edge">
<title>C3&#45;&gt;F</title>
<path fill="none" stroke="#ef4444" stroke-width="1.6" stroke-dasharray="5,2" d="M154.01,-736.57C166.66,-729.32 180.94,-720.4 193,-711 207.1,-700.01 221.32,-685.86 232.15,-674.28"/>
<polygon fill="#ef4444" stroke="#ef4444" stroke-width="1.6" points="238.07,-667.82 234.97,-677.19 236.57,-669.91 232.21,-674.66 231.99,-674.46 231.76,-674.25 236.12,-669.5 229,-671.72 238.07,-667.82"/>
</g>
<!-- D2 -->
<g id="node10" class="node">
<title>D2</title>
<path fill="#ffffff" stroke="#0f172a" stroke-width="2" d="M146,-569C146,-569 64,-569 64,-569 58,-569 52,-563 52,-557 52,-557 52,-545 52,-545 52,-539 58,-533 64,-533 64,-533 146,-533 146,-533 152,-533 158,-539 158,-545 158,-545 158,-557 158,-557 158,-563 152,-569 146,-569"/>
<text xml:space="preserve" text-anchor="middle" x="105" y="-554.05" font-family="Times New Roman,serif" font-size="11.00" fill="#0f172a">Symptom Clustering</text>
<text xml:space="preserve" text-anchor="middle" x="105" y="-540.55" font-family="Times New Roman,serif" font-size="11.00" fill="#0f172a">Severity Groups</text>
</g>
<!-- D1&#45;&gt;D2 -->
<g id="edge9" class="edge">
<title>D1&#45;&gt;D2</title>
<path fill="none" stroke="#475569" stroke-width="1.6" d="M105,-633.76C105,-618.94 105,-597.3 105,-580"/>
<polygon fill="#475569" stroke="#475569" stroke-width="1.6" points="105,-571.33 109.05,-580.33 105.3,-573.88 105.3,-580.33 105,-580.33 104.7,-580.33 104.7,-573.88 100.95,-580.33 105,-571.33"/>
</g>
<!-- D3 -->
<g id="node11" class="node">
<title>D3</title>
<path fill="#ffffff" stroke="#0f172a" stroke-width="2" d="M150.12,-468C150.12,-468 59.88,-468 59.88,-468 53.88,-468 47.87,-462 47.87,-456 47.87,-456 47.87,-444 47.87,-444 47.87,-438 53.87,-432 59.87,-432 59.87,-432 150.12,-432 150.12,-432 156.12,-432 162.12,-438 162.12,-444 162.12,-444 162.12,-456 162.12,-456 162.12,-462 156.12,-468 150.12,-468"/>
<text xml:space="preserve" text-anchor="middle" x="105" y="-453.05" font-family="Times New Roman,serif" font-size="11.00" fill="#0f172a">Age Categorization</text>
<text xml:space="preserve" text-anchor="middle" x="105" y="-439.55" font-family="Times New Roman,serif" font-size="11.00" fill="#0f172a">Child / Adult / Elderly</text>
</g>
<!-- D2&#45;&gt;D3 -->
<g id="edge10" class="edge">
<title>D2&#45;&gt;D3</title>
<path fill="none" stroke="#475569" stroke-width="1.6" d="M105,-532.76C105,-517.94 105,-496.3 105,-479"/>
<polygon fill="#475569" stroke="#475569" stroke-width="1.6" points="105,-470.33 109.05,-479.33 105.3,-472.88 105.3,-479.33 105,-479.33 104.7,-479.33 104.7,-472.88 100.95,-479.33 105,-470.33"/>
</g>
<!-- D4 -->
<g id="node12" class="node">
<title>D4</title>
<path fill="#ffffff" stroke="#0f172a" stroke-width="2" d="M152.38,-367C152.38,-367 57.62,-367 57.62,-367 51.62,-367 45.62,-361 45.62,-355 45.62,-355 45.62,-343 45.62,-343 45.62,-337 51.62,-331 57.62,-331 57.62,-331 152.38,-331 152.38,-331 158.38,-331 164.38,-337 164.38,-343 164.38,-343 164.38,-355 164.38,-355 164.38,-361 158.38,-367 152.38,-367"/>
<text xml:space="preserve" text-anchor="middle" x="105" y="-345.3" font-family="Times New Roman,serif" font-size="11.00" fill="#0f172a">Risk Score Calculation</text>
</g>
<!-- D3&#45;&gt;D4 -->
<g id="edge11" class="edge">
<title>D3&#45;&gt;D4</title>
<path fill="none" stroke="#475569" stroke-width="1.6" d="M105,-431.76C105,-416.94 105,-395.3 105,-378"/>
<polygon fill="#475569" stroke="#475569" stroke-width="1.6" points="105,-369.33 109.05,-378.33 105.3,-371.88 105.3,-378.33 105,-378.33 104.7,-378.33 104.7,-371.88 100.95,-378.33 105,-369.33"/>
</g>
<!-- E1 -->
<g id="node13" class="node">
<title>E1</title>
<path fill="#ffffff" stroke="#0f172a" stroke-width="2" d="M140.75,-264C140.75,-264 69.25,-264 69.25,-264 63.25,-264 57.25,-258 57.25,-252 57.25,-252 57.25,-240 57.25,-240 57.25,-234 63.25,-228 69.25,-228 69.25,-228 140.75,-228 140.75,-228 146.75,-228 152.75,-234 152.75,-240 152.75,-240 152.75,-252 152.75,-252 152.75,-258 146.75,-264 140.75,-264"/>
<text xml:space="preserve" text-anchor="middle" x="105" y="-242.3" font-family="Times New Roman,serif" font-size="11.00" fill="#0f172a">Selected Features</text>
</g>
<!-- D4&#45;&gt;E1 -->
<g id="edge12" class="edge">
<title>D4&#45;&gt;E1</title>
<path fill="none" stroke="#475569" stroke-width="1.6" d="M105,-330.87C105,-315.56 105,-292.85 105,-274.92"/>
<polygon fill="#475569" stroke="#475569" stroke-width="1.6" points="105,-266.17 109.05,-275.17 105.3,-268.72 105.3,-275.17 105,-275.17 104.7,-275.17 104.7,-268.72 100.95,-275.17 105,-266.17"/>
</g>
<!-- E2 -->
<g id="node14" class="node">
<title>E2</title>
<path fill="#ffffff" stroke="#0f172a" stroke-width="2" d="M146.75,-163C146.75,-163 63.25,-163 63.25,-163 57.25,-163 51.25,-157 51.25,-151 51.25,-151 51.25,-139 51.25,-139 51.25,-133 57.25,-127 63.25,-127 63.25,-127 146.75,-127 146.75,-127 152.75,-127 158.75,-133 158.75,-139 158.75,-139 158.75,-151 158.75,-151 158.75,-157 152.75,-163 146.75,-163"/>
<text xml:space="preserve" text-anchor="middle" x="105" y="-141.3" font-family="Times New Roman,serif" font-size="11.00" fill="#0f172a">Engineered Features</text>
</g>
<!-- E1&#45;&gt;E2 -->
<g id="edge13" class="edge">
<title>E1&#45;&gt;E2</title>
<path fill="none" stroke="#475569" stroke-width="1.6" d="M105,-227.76C105,-212.94 105,-191.3 105,-174"/>
<polygon fill="#475569" stroke="#475569" stroke-width="1.6" points="105,-165.33 109.05,-174.33 105.3,-167.88 105.3,-174.33 105,-174.33 104.7,-174.33 104.7,-167.88 100.95,-174.33 105,-165.33"/>
</g>
<!-- E3 -->
<g id="node15" class="node">
<title>E3</title>
<path fill="#ffffff" stroke="#0f172a" stroke-width="2" d="M143,-62C143,-62 67,-62 67,-62 61,-62 55,-56 55,-50 55,-50 55,-38 55,-38 55,-32 61,-26 67,-26 67,-26 143,-26 143,-26 149,-26 155,-32 155,-38 155,-38 155,-50 155,-50 155,-56 149,-62 143,-62"/>
<text xml:space="preserve" text-anchor="middle" x="105" y="-47.05" font-family="Times New Roman,serif" font-size="11.00" fill="#0f172a">Optimized Dataset</text>
<text xml:space="preserve" text-anchor="middle" x="105" y="-33.55" font-family="Times New Roman,serif" font-size="11.00" fill="#0f172a">Ready for Training</text>
</g>
<!-- E2&#45;&gt;E3 -->
<g id="edge14" class="edge">
<title>E2&#45;&gt;E3</title>
<path fill="none" stroke="#475569" stroke-width="1.6" d="M105,-126.76C105,-111.94 105,-90.3 105,-73"/>
<polygon fill="#475569" stroke="#475569" stroke-width="1.6" points="105,-64.33 109.05,-73.33 105.3,-66.88 105.3,-73.33 105,-73.33 104.7,-73.33 104.7,-66.88 100.95,-73.33 105,-64.33"/>
</g>
</g>
</svg>
