<?xml version="1.0" encoding="UTF-8" standalone="no"?>
<!DOCTYPE svg PUBLIC "-//W3C//DTD SVG 1.1//EN"
 "http://www.w3.org/Graphics/SVG/1.1/DTD/svg11.dtd">
<!-- Generated by graphviz version 14.0.4 (20251115.1723)
 -->
<!-- Title: model_training_flow Pages: 1 -->
<svg width="2276pt" height="409pt"
 viewBox="0.00 0.00 2276.00 409.00" xmlns="http://www.w3.org/2000/svg" xmlns:xlink="http://www.w3.org/1999/xlink">
<g id="graph0" class="graph" transform="scale(1 1) rotate(0) translate(50.4 358.4)">
<title>model_training_flow</title>
<polygon fill="#f8fafc" stroke="none" points="-50.4,50.4 -50.4,-358.4 2225.15,-358.4 2225.15,50.4 -50.4,50.4"/>
<g id="clust1" class="cluster">
<title>cluster_data</title>
<path fill="#e8f5e9" stroke="#cbd5f5" stroke-width="2" d="M20,-18C20,-18 137.25,-18 137.25,-18 143.25,-18 149.25,-24 149.25,-30 149.25,-30 149.25,-180 149.25,-180 149.25,-186 143.25,-192 137.25,-192 137.25,-192 20,-192 20,-192 14,-192 8,-186 8,-180 8,-180 8,-30 8,-30 8,-24 14,-18 20,-18"/>
<text xml:space="preserve" text-anchor="middle" x="71.88" y="-175.65" font-family="Helvetica,sans-Serif" font-weight="bold" font-size="13.00" fill="#0f172a">PREPARED DATA</text>
</g>
<g id="clust2" class="cluster">
<title>cluster_train</title>
<path fill="#fff3e0" stroke="#cbd5f5" stroke-width="2" d="M190.25,-47C190.25,-47 345.75,-47 345.75,-47 351.75,-47 357.75,-53 357.75,-59 357.75,-59 357.75,-288 357.75,-288 357.75,-294 351.75,-300 345.75,-300 345.75,-300 190.25,-300 190.25,-300 184.25,-300 178.25,-294 178.25,-288 178.25,-288 178.25,-59 178.25,-59 178.25,-53 184.25,-47 190.25,-47"/>
<text xml:space="preserve" text-anchor="middle" x="243.62" y="-283.65" font-family="Helvetica,sans-Serif" font-weight="bold" font-size="13.00" fill="#0f172a">MODEL TRAINING</text>
</g>
<g id="clust3" class="cluster">
<title>cluster_opt</title>
<path fill="#f3e5f5" stroke="#cbd5f5" stroke-width="2" d="M398.75,-77C398.75,-77 879.75,-77 879.75,-77 885.75,-77 891.75,-83 891.75,-89 891.75,-89 891.75,-160 891.75,-160 891.75,-166 885.75,-172 879.75,-172 879.75,-172 398.75,-172 398.75,-172 392.75,-172 386.75,-166 386.75,-160 386.75,-160 386.75,-89 386.75,-89 386.75,-83 392.75,-77 398.75,-77"/>
<text xml:space="preserve" text-anchor="middle" x="487" y="-155.65" font-family="Helvetica,sans-Serif" font-weight="bold" font-size="13.00" fill="#0f172a">HYPERPARAMETER TUNING</text>
</g>
<g id="clust4" class="cluster">
<title>cluster_eval</title>
<path fill="#e1f5fe" stroke="#cbd5f5" stroke-width="2" d="M932.75,-38C932.75,-38 1560,-38 1560,-38 1566,-38 1572,-44 1572,-50 1572,-50 1572,-121 1572,-121 1572,-127 1566,-133 1560,-133 1560,-133 932.75,-133 932.75,-133 926.75,-133 920.75,-127 920.75,-121 920.75,-121 920.75,-50 920.75,-50 920.75,-44 926.75,-38 932.75,-38"/>
<text xml:space="preserve" text-anchor="middle" x="995.88" y="-116.65" font-family="Helvetica,sans-Serif" font-weight="bold" font-size="13.00" fill="#0f172a">MODEL EVALUATION</text>
</g>
<g id="clust5" class="cluster">
<title>cluster_results</title>
<path fill="#fce4ec" stroke="#cbd5f5" stroke-width="2" d="M1613,-38C1613,-38 2154.75,-38 2154.75,-38 2160.75,-38 2166.75,-44 2166.75,-50 2166.75,-50 2166.75,-121 2166.75,-121 2166.75,-127 2160.75,-133 2154.75,-133 2154.75,-133 1613,-133 1613,-133 1607,-133 1601,-127 1601,-121 1601,-121 1601,-50 1601,-50 1601,-44 1607,-38 1613,-38"/>
<text xml:space="preserve" text-anchor="middle" x="1686.25" y="-116.65" font-family="Helvetica,sans-Serif" font-weight="bold" font-size="13.00" fill="#0f172a">RESULTS COMPARISON</text>
</g>
<!-- A -->
<g id="node1" class="node">
<title>A</title>
<path fill="#ffffff" stroke="#0f172a" stroke-width="2" d="M119.25,-151C119.25,-151 38,-151 38,-151 32,-151 26,-145 26,-139 26,-139 26,-127 26,-127 26,-121 32,-115 38,-115 38,-115 119.25,-115 119.25,-115 125.25,-115 131.25,-121 131.25,-127 131.25,-127 131.25,-139 131.25,-139 131.25,-145 125.25,-151 119.25,-151"/>
<text xml:space="preserve" text-anchor="middle" x="78.62" y="-136.05" font-family="Times New Roman,serif" font-size="11.00" fill="#0f172a">Training Set</text>
<text xml:space="preserve" text-anchor="middle" x="78.62" y="-122.55" font-family="Times New Roman,serif" font-size="11.00" fill="#0f172a">1600 Records / 80%</text>
</g>
<!-- C1 -->
<g id="node3" class="node">
<title>C1</title>
<path fill="#ffffff" stroke="#0f172a" stroke-width="2" d="M314.62,-101C314.62,-101 221.38,-101 221.38,-101 215.38,-101 209.38,-95 209.38,-89 209.38,-89 209.38,-77 209.38,-77 209.38,-71 215.38,-65 221.38,-65 221.38,-65 314.62,-65 314.62,-65 320.62,-65 326.62,-71 326.62,-77 326.62,-77 326.62,-89 326.62,-89 326.62,-95 320.62,-101 314.62,-101"/>
<text xml:space="preserve" text-anchor="middle" x="268" y="-79.3" font-family="Times New Roman,serif" font-size="11.00" fill="#0f172a">Decision Tree Training</text>
</g>
<!-- A&#45;&gt;C1 -->
<g id="edge1" class="edge">
<title>A&#45;&gt;C1</title>
<path fill="none" stroke="#475569" stroke-width="1.6" d="M131.32,-119.2C152.18,-113.64 176.53,-107.14 198.8,-101.2"/>
<polygon fill="#475569" stroke="#475569" stroke-width="1.6" points="207.32,-98.92 199.67,-105.16 204.93,-99.87 198.7,-101.54 198.63,-101.25 198.55,-100.96 204.78,-99.29 197.58,-97.33 207.32,-98.92"/>
</g>
<!-- C2 -->
<g id="node4" class="node">
<title>C2</title>
<path fill="#ffffff" stroke="#0f172a" stroke-width="2" d="M295.5,-180C295.5,-180 240.5,-180 240.5,-180 234.5,-180 228.5,-174 228.5,-168 228.5,-168 228.5,-156 228.5,-156 228.5,-150 234.5,-144 240.5,-144 240.5,-144 295.5,-144 295.5,-144 301.5,-144 307.5,-150 307.5,-156 307.5,-156 307.5,-168 307.5,-168 307.5,-174 301.5,-180 295.5,-180"/>
<text xml:space="preserve" text-anchor="middle" x="268" y="-158.3" font-family="Times New Roman,serif" font-size="11.00" fill="#0f172a">SVM Training</text>
</g>
<!-- A&#45;&gt;C2 -->
<g id="edge2" class="edge">
<title>A&#45;&gt;C2</title>
<path fill="none" stroke="#475569" stroke-width="1.6" d="M131.32,-141C158.27,-145.17 191.05,-150.25 217.64,-154.36"/>
<polygon fill="#475569" stroke="#475569" stroke-width="1.6" points="226.32,-155.7 216.81,-158.33 223.76,-155.61 217.38,-154.62 217.43,-154.33 217.48,-154.03 223.85,-155.02 218.05,-150.33 226.32,-155.7"/>
</g>
<!-- C3 -->
<g id="node5" class="node">
<title>C3</title>
<path fill="#ffffff" stroke="#0f172a" stroke-width="2" d="M327.75,-259C327.75,-259 208.25,-259 208.25,-259 202.25,-259 196.25,-253 196.25,-247 196.25,-247 196.25,-235 196.25,-235 196.25,-229 202.25,-223 208.25,-223 208.25,-223 327.75,-223 327.75,-223 333.75,-223 339.75,-229 339.75,-235 339.75,-235 339.75,-247 339.75,-247 339.75,-253 333.75,-259 327.75,-259"/>
<text xml:space="preserve" text-anchor="middle" x="268" y="-237.3" font-family="Times New Roman,serif" font-size="11.00" fill="#0f172a">Logistic Regression Training</text>
</g>
<!-- A&#45;&gt;C3 -->
<g id="edge3" class="edge">
<title>A&#45;&gt;C3</title>
<path fill="none" stroke="#475569" stroke-width="1.6" d="M103.08,-151.39C122.54,-166.15 151.29,-186.84 178.25,-202 188.47,-207.75 199.7,-213.25 210.64,-218.23"/>
<polygon fill="#475569" stroke="#475569" stroke-width="1.6" points="218.78,-221.84 208.91,-221.89 216.32,-221.08 210.43,-218.46 210.55,-218.19 210.67,-217.92 216.57,-220.53 212.2,-214.49 218.78,-221.84"/>
</g>
<!-- B -->
<g id="node2" class="node">
<title>B</title>
<path fill="#ffffff" stroke="#0f172a" stroke-width="2" d="M116.62,-72C116.62,-72 40.62,-72 40.62,-72 34.62,-72 28.62,-66 28.62,-60 28.62,-60 28.62,-48 28.62,-48 28.62,-42 34.62,-36 40.62,-36 40.62,-36 116.62,-36 116.62,-36 122.62,-36 128.62,-42 128.62,-48 128.62,-48 128.62,-60 128.62,-60 128.62,-66 122.62,-72 116.62,-72"/>
<text xml:space="preserve" text-anchor="middle" x="78.62" y="-57.05" font-family="Times New Roman,serif" font-size="11.00" fill="#0f172a">Test Set</text>
<text xml:space="preserve" text-anchor="middle" x="78.62" y="-43.55" font-family="Times New Roman,serif" font-size="11.00" fill="#0f172a">400 Records / 20%</text>
</g>
<!-- E1 -->
<g id="node9" class="node">
<title>E1</title>
<path fill="#ffffff" stroke="#0f172a" stroke-width="2" d="M1040.25,-92C1040.25,-92 950.75,-92 950.75,-92 944.75,-92 938.75,-86 938.75,-80 938.75,-80 938.75,-68 938.75,-68 938.75,-62 944.75,-56 950.75,-56 950.75,-56 1040.25,-56 1040.25,-56 1046.25,-56 1052.25,-62 1052.25,-68 1052.25,-68 1052.25,-80 1052.25,-80 1052.25,-86 1046.25,-92 1040.25,-92"/>
<text xml:space="preserve" text-anchor="middle" x="995.5" y="-70.3" font-family="Times New Roman,serif" font-size="11.00" fill="#0f172a">Accuracy Calculation</text>
</g>
<!-- B&#45;&gt;E1 -->
<g id="edge10" class="edge">
<title>B&#45;&gt;E1</title>
<path fill="none" stroke="#475569" stroke-width="1.6" d="M128.94,-42.02C198.84,-26.11 330.95,0 445.12,0 445.12,0 445.12,0 614.75,0 726.37,0 853.1,-31.18 928.29,-53.07"/>
<polygon fill="#475569" stroke="#475569" stroke-width="1.6" points="936.68,-55.54 926.9,-56.88 934.15,-55.1 927.96,-53.28 928.04,-52.99 928.13,-52.71 934.31,-54.53 929.19,-49.11 936.68,-55.54"/>
</g>
<!-- D1 -->
<g id="node6" class="node">
<title>D1</title>
<path fill="#ffffff" stroke="#0f172a" stroke-width="2" d="M475.5,-131C475.5,-131 416.75,-131 416.75,-131 410.75,-131 404.75,-125 404.75,-119 404.75,-119 404.75,-107 404.75,-107 404.75,-101 410.75,-95 416.75,-95 416.75,-95 475.5,-95 475.5,-95 481.5,-95 487.5,-101 487.5,-107 487.5,-107 487.5,-119 487.5,-119 487.5,-125 481.5,-131 475.5,-131"/>
<text xml:space="preserve" text-anchor="middle" x="446.12" y="-116.05" font-family="Times New Roman,serif" font-size="11.00" fill="#0f172a">GridSearchCV</text>
<text xml:space="preserve" text-anchor="middle" x="446.12" y="-102.55" font-family="Times New Roman,serif" font-size="11.00" fill="#0f172a">5&#45;Fold</text>
</g>
<!-- C1&#45;&gt;D1 -->
<g id="edge4" class="edge">
<title>C1&#45;&gt;D1</title>
<path fill="none" stroke="#475569" stroke-width="1.6" d="M326.67,-92.82C348.28,-96.5 372.68,-100.66 393.69,-104.24"/>
<polygon fill="#475569" stroke="#475569" stroke-width="1.6" points="402.42,-105.73 392.87,-108.21 399.86,-105.59 393.5,-104.51 393.55,-104.21 393.6,-103.92 399.96,-105 394.23,-100.22 402.42,-105.73"/>
</g>
<!-- C2&#45;&gt;D1 -->
<g id="edge5" class="edge">
<title>C2&#45;&gt;D1</title>
<path fill="none" stroke="#475569" stroke-width="1.6" d="M307.65,-151.25C333.06,-144.18 366.59,-134.85 394.17,-127.18"/>
<polygon fill="#475569" stroke="#475569" stroke-width="1.6" points="402.54,-124.85 394.96,-131.16 400.17,-125.82 393.95,-127.55 393.87,-127.26 393.79,-126.97 400,-125.24 392.79,-123.36 402.54,-124.85"/>
</g>
<!-- C3&#45;&gt;D1 -->
<g id="edge6" class="edge">
<title>C3&#45;&gt;D1</title>
<path fill="none" stroke="#475569" stroke-width="1.6" d="M320.06,-222.51C332.88,-216.83 346.26,-209.94 357.75,-202 383.09,-184.5 407.24,-158.98 423.7,-139.75"/>
<polygon fill="#475569" stroke="#475569" stroke-width="1.6" points="429.45,-132.9 426.77,-142.4 428.04,-135.04 423.9,-139.98 423.67,-139.79 423.44,-139.6 427.58,-134.66 420.56,-137.19 429.45,-132.9"/>
</g>
<!-- D2 -->
<g id="node7" class="node">
<title>D2</title>
<path fill="#ffffff" stroke="#0f172a" stroke-width="2" d="M663,-131C663,-131 564.5,-131 564.5,-131 558.5,-131 552.5,-125 552.5,-119 552.5,-119 552.5,-107 552.5,-107 552.5,-101 558.5,-95 564.5,-95 564.5,-95 663,-95 663,-95 669,-95 675,-101 675,-107 675,-107 675,-119 675,-119 675,-125 669,-131 663,-131"/>
<text xml:space="preserve" text-anchor="middle" x="613.75" y="-109.3" font-family="Times New Roman,serif" font-size="11.00" fill="#0f172a">Parameter Optimization</text>
</g>
<!-- D1&#45;&gt;D2 -->
<g id="edge7" class="edge">
<title>D1&#45;&gt;D2</title>
<path fill="none" stroke="#475569" stroke-width="1.6" d="M487.64,-113C503.89,-113 523.11,-113 541.55,-113"/>
<polygon fill="#475569" stroke="#475569" stroke-width="1.6" points="550.34,-113 541.34,-117.05 547.79,-113.3 541.34,-113.3 541.34,-113 541.34,-112.7 547.79,-112.7 541.34,-108.95 550.34,-113"/>
</g>
<!-- D3 -->
<g id="node8" class="node">
<title>D3</title>
<path fill="#ffffff" stroke="#0f172a" stroke-width="2" d="M861.75,-131C861.75,-131 752,-131 752,-131 746,-131 740,-125 740,-119 740,-119 740,-107 740,-107 740,-101 746,-95 752,-95 752,-95 861.75,-95 861.75,-95 867.75,-95 873.75,-101 873.75,-107 873.75,-107 873.75,-119 873.75,-119 873.75,-125 867.75,-131 861.75,-131"/>
<text xml:space="preserve" text-anchor="middle" x="806.88" y="-109.3" font-family="Times New Roman,serif" font-size="11.00" fill="#0f172a">Best Parameters Selection</text>
</g>
<!-- D2&#45;&gt;D3 -->
<g id="edge8" class="edge">
<title>D2&#45;&gt;D3</title>
<path fill="none" stroke="#475569" stroke-width="1.6" d="M675.49,-113C692.41,-113 711.03,-113 728.76,-113"/>
<polygon fill="#475569" stroke="#475569" stroke-width="1.6" points="737.72,-113 728.72,-117.05 735.17,-113.3 728.72,-113.3 728.72,-113 728.72,-112.7 735.17,-112.7 728.72,-108.95 737.72,-113"/>
</g>
<!-- D3&#45;&gt;E1 -->
<g id="edge9" class="edge">
<title>D3&#45;&gt;E1</title>
<path fill="none" stroke="#475569" stroke-width="1.6" d="M874.2,-99.14C891.55,-95.51 910.26,-91.6 927.64,-87.97"/>
<polygon fill="#475569" stroke="#475569" stroke-width="1.6" points="936.36,-86.15 928.38,-91.96 933.93,-86.97 927.61,-88.28 927.55,-87.99 927.49,-87.7 933.8,-86.38 926.72,-84.03 936.36,-86.15"/>
</g>
<!-- E2 -->
<g id="node10" class="node">
<title>E2</title>
<path fill="#ffffff" stroke="#0f172a" stroke-width="2" d="M1221,-92C1221,-92 1129.25,-92 1129.25,-92 1123.25,-92 1117.25,-86 1117.25,-80 1117.25,-80 1117.25,-68 1117.25,-68 1117.25,-62 1123.25,-56 1129.25,-56 1129.25,-56 1221,-56 1221,-56 1227,-56 1233,-62 1233,-68 1233,-68 1233,-80 1233,-80 1233,-86 1227,-92 1221,-92"/>
<text xml:space="preserve" text-anchor="middle" x="1175.12" y="-70.3" font-family="Times New Roman,serif" font-size="11.00" fill="#0f172a">Precision / Recall / F1</text>
</g>
<!-- E1&#45;&gt;E2 -->
<g id="edge11" class="edge">
<title>E1&#45;&gt;E2</title>
<path fill="none" stroke="#475569" stroke-width="1.6" d="M1052.7,-74C1069.62,-74 1088.37,-74 1105.98,-74"/>
<polygon fill="#475569" stroke="#475569" stroke-width="1.6" points="1114.81,-74 1105.81,-78.05 1112.26,-74.3 1105.81,-74.3 1105.81,-74 1105.81,-73.7 1112.26,-73.7 1105.81,-69.95 1114.81,-74"/>
</g>
<!-- E3 -->
<g id="node11" class="node">
<title>E3</title>
<path fill="#ffffff" stroke="#0f172a" stroke-width="2" d="M1380,-92C1380,-92 1310,-92 1310,-92 1304,-92 1298,-86 1298,-80 1298,-80 1298,-68 1298,-68 1298,-62 1304,-56 1310,-56 1310,-56 1380,-56 1380,-56 1386,-56 1392,-62 1392,-68 1392,-68 1392,-80 1392,-80 1392,-86 1386,-92 1380,-92"/>
<text xml:space="preserve" text-anchor="middle" x="1345" y="-70.3" font-family="Times New Roman,serif" font-size="11.00" fill="#0f172a">Confusion Matrix</text>
</g>
<!-- E2&#45;&gt;E3 -->
<g id="edge12" class="edge">
<title>E2&#45;&gt;E3</title>
<path fill="none" stroke="#475569" stroke-width="1.6" d="M1233.43,-74C1250.73,-74 1269.72,-74 1287.01,-74"/>
<polygon fill="#475569" stroke="#475569" stroke-width="1.6" points="1295.57,-74 1286.57,-78.05 1293.02,-74.3 1286.57,-74.3 1286.57,-74 1286.57,-73.7 1293.02,-73.7 1286.57,-69.95 1295.57,-74"/>
</g>
<!-- E4 -->
<g id="node12" class="node">
<title>E4</title>
<path fill="#ffffff" stroke="#0f172a" stroke-width="2" d="M1542,-92C1542,-92 1469,-92 1469,-92 1463,-92 1457,-86 1457,-80 1457,-80 1457,-68 1457,-68 1457,-62 1463,-56 1469,-56 1469,-56 1542,-56 1542,-56 1548,-56 1554,-62 1554,-68 1554,-68 1554,-80 1554,-80 1554,-86 1548,-92 1542,-92"/>
<text xml:space="preserve" text-anchor="middle" x="1505.5" y="-70.3" font-family="Times New Roman,serif" font-size="11.00" fill="#0f172a">ROC&#45;AUC Curve</text>
</g>
<!-- E3&#45;&gt;E4 -->
<g id="edge13" class="edge">
<title>E3&#45;&gt;E4</title>
<path fill="none" stroke="#475569" stroke-width="1.6" d="M1392.27,-74C1408.99,-74 1428.1,-74 1445.75,-74"/>
<polygon fill="#475569" stroke="#475569" stroke-width="1.6" points="1454.57,-74 1445.57,-78.05 1452.02,-74.3 1445.57,-74.3 1445.57,-74 1445.57,-73.7 1452.02,-73.7 1445.57,-69.95 1454.57,-74"/>
</g>
<!-- F1 -->
<g id="node13" class="node">
<title>F1</title>
<path fill="#ffffff" stroke="#0f172a" stroke-width="2" d="M1767.75,-92C1767.75,-92 1631,-92 1631,-92 1625,-92 1619,-86 1619,-80 1619,-80 1619,-68 1619,-68 1619,-62 1625,-56 1631,-56 1631,-56 1767.75,-56 1767.75,-56 1773.75,-56 1779.75,-62 1779.75,-68 1779.75,-68 1779.75,-80 1779.75,-80 1779.75,-86 1773.75,-92 1767.75,-92"/>
<text xml:space="preserve" text-anchor="middle" x="1699.38" y="-70.3" font-family="Times New Roman,serif" font-size="11.00" fill="#0f172a">Model Performance Comparison</text>
</g>
<!-- E4&#45;&gt;F1 -->
<g id="edge14" class="edge">
<title>E4&#45;&gt;F1</title>
<path fill="none" stroke="#475569" stroke-width="1.6" d="M1554.42,-74C1570.66,-74 1589.37,-74 1607.82,-74"/>
<polygon fill="#475569" stroke="#475569" stroke-width="1.6" points="1616.68,-74 1607.68,-78.05 1614.13,-74.3 1607.68,-74.3 1607.68,-74 1607.68,-73.7 1614.13,-73.7 1607.68,-69.95 1616.68,-74"/>
</g>
<!-- F2 -->
<g id="node14" class="node">
<title>F2</title>
<path fill="#ffffff" stroke="#0f172a" stroke-width="2" d="M1944.75,-92C1944.75,-92 1856.75,-92 1856.75,-92 1850.75,-92 1844.75,-86 1844.75,-80 1844.75,-80 1844.75,-68 1844.75,-68 1844.75,-62 1850.75,-56 1856.75,-56 1856.75,-56 1944.75,-56 1944.75,-56 1950.75,-56 1956.75,-62 1956.75,-68 1956.75,-68 1956.75,-80 1956.75,-80 1956.75,-86 1950.75,-92 1944.75,-92"/>
<text xml:space="preserve" text-anchor="middle" x="1900.75" y="-77.05" font-family="Times New Roman,serif" font-size="11.00" fill="#0f172a">Best Model Selection</text>
<text xml:space="preserve" text-anchor="middle" x="1900.75" y="-63.55" font-family="Times New Roman,serif" font-size="11.00" fill="#0f172a">SVM 88.2%</text>
</g>
<!-- F1&#45;&gt;F2 -->
<g id="edge15" class="edge">
<title>F1&#45;&gt;F2</title>
<path fill="none" stroke="#475569" stroke-width="1.6" d="M1780.03,-74C1797.91,-74 1816.68,-74 1833.92,-74"/>
<polygon fill="#475569" stroke="#475569" stroke-width="1.6" points="1842.48,-74 1833.48,-78.05 1839.93,-74.3 1833.48,-74.3 1833.48,-74 1833.48,-73.7 1839.93,-73.7 1833.48,-69.95 1842.48,-74"/>
</g>
<!-- F3 -->
<g id="node15" class="node">
<title>F3</title>
<path fill="#ffffff" stroke="#0f172a" stroke-width="2" d="M2136.75,-92C2136.75,-92 2033.75,-92 2033.75,-92 2027.75,-92 2021.75,-86 2021.75,-80 2021.75,-80 2021.75,-68 2021.75,-68 2021.75,-62 2027.75,-56 2033.75,-56 2033.75,-56 2136.75,-56 2136.75,-56 2142.75,-56 2148.75,-62 2148.75,-68 2148.75,-68 2148.75,-80 2148.75,-80 2148.75,-86 2142.75,-92 2136.75,-92"/>
<text xml:space="preserve" text-anchor="middle" x="2085.25" y="-70.3" font-family="Times New Roman,serif" font-size="11.00" fill="#0f172a">Final Model Deployment</text>
</g>
<!-- F2&#45;&gt;F3 -->
<g id="edge16" class="edge">
<title>F2&#45;&gt;F3</title>
<path fill="none" stroke="#475569" stroke-width="1.6" d="M1957,-74C1973.94,-74 1992.84,-74 2010.79,-74"/>
<polygon fill="#475569" stroke="#475569" stroke-width="1.6" points="2019.57,-74 2010.57,-78.05 2017.02,-74.3 2010.57,-74.3 2010.57,-74 2010.57,-73.7 2017.02,-73.7 2010.57,-69.95 2019.57,-74"/>
</g>
</g>
</svg>
