<?xml version="1.0" encoding="UTF-8" standalone="no"?>
<!DOCTYPE svg PUBLIC "-//W3C//DTD SVG 1.1//EN"
 "http://www.w3.org/Graphics/SVG/1.1/DTD/svg11.dtd">
<!-- Generated by graphviz version 14.0.4 (20251115.1723)
 -->
<!-- Title: system_architecture Pages: 1 -->
<svg width="535pt" height="1636pt"
 viewBox="0.00 0.00 535.00 1636.00" xmlns="http://www.w3.org/2000/svg" xmlns:xlink="http://www.w3.org/1999/xlink">
<g id="graph0" class="graph" transform="scale(1 1) rotate(0) translate(50.4 1585.4)">
<title>system_architecture</title>
<polygon fill="#f8fafc" stroke="none" points="-50.4,50.4 -50.4,-1585.4 484.4,-1585.4 484.4,50.4 -50.4,50.4"/>
<g id="clust1" class="cluster">
<title>cluster_input</title>
<path fill="#e1f5ff" stroke="#cbd5f5" stroke-width="2" d="M127,-1432C127,-1432 414,-1432 414,-1432 420,-1432 426,-1438 426,-1444 426,-1444 426,-1515 426,-1515 426,-1521 420,-1527 414,-1527 414,-1527 127,-1527 127,-1527 121,-1527 115,-1521 115,-1515 115,-1515 115,-1444 115,-1444 115,-1438 121,-1432 127,-1432"/>
<text xml:space="preserve" text-anchor="middle" x="186" y="-1510.65" font-family="Helvetica,sans-Serif" font-weight="bold" font-size="13.00" fill="#0f172a">DATA INPUT LAYER</text>
</g>
<g id="clust2" class="cluster">
<title>cluster_preproc</title>
<path fill="#fff4e1" stroke="#cbd5f5" stroke-width="2" d="M132,-1026C132,-1026 276,-1026 276,-1026 282,-1026 288,-1032 288,-1038 288,-1038 288,-1412 288,-1412 288,-1418 282,-1424 276,-1424 276,-1424 132,-1424 132,-1424 126,-1424 120,-1418 120,-1412 120,-1412 120,-1038 120,-1038 120,-1032 126,-1026 132,-1026"/>
<text xml:space="preserve" text-anchor="middle" x="203.75" y="-1407.65" font-family="Helvetica,sans-Serif" font-weight="bold" font-size="13.00" fill="#0f172a">PREPROCESSING UNIT</text>
</g>
<g id="clust3" class="cluster">
<title>cluster_analysis</title>
<path fill="#f0e1ff" stroke="#cbd5f5" stroke-width="2" d="M139,-721C139,-721 269,-721 269,-721 275,-721 281,-727 281,-733 281,-733 281,-1006 281,-1006 281,-1012 275,-1018 269,-1018 269,-1018 139,-1018 139,-1018 133,-1018 127,-1012 127,-1006 127,-1006 127,-733 127,-733 127,-727 133,-721 139,-721"/>
<text xml:space="preserve" text-anchor="middle" x="204" y="-1001.65" font-family="Helvetica,sans-Serif" font-weight="bold" font-size="13.00" fill="#0f172a">AI ANALYSIS ENGINE</text>
</g>
<g id="clust4" class="cluster">
<title>cluster_models</title>
<path fill="#e1ffe1" stroke="#cbd5f5" stroke-width="2" d="M20,-618C20,-618 402,-618 402,-618 408,-618 414,-624 414,-630 414,-630 414,-701 414,-701 414,-707 408,-713 402,-713 402,-713 20,-713 20,-713 14,-713 8,-707 8,-701 8,-701 8,-630 8,-630 8,-624 14,-618 20,-618"/>
<text xml:space="preserve" text-anchor="middle" x="113.88" y="-696.65" font-family="Helvetica,sans-Serif" font-weight="bold" font-size="13.00" fill="#0f172a">MACHINE LEARNING MODELS</text>
</g>
<g id="clust5" class="cluster">
<title>cluster_output</title>
<path fill="#ffe1e1" stroke="#cbd5f5" stroke-width="2" d="M130,-313C130,-313 278,-313 278,-313 284,-313 290,-319 290,-325 290,-325 290,-598 290,-598 290,-604 284,-610 278,-610 278,-610 130,-610 130,-610 124,-610 118,-604 118,-598 118,-598 118,-325 118,-325 118,-319 124,-313 130,-313"/>
<text xml:space="preserve" text-anchor="middle" x="193.5" y="-593.65" font-family="Helvetica,sans-Serif" font-weight="bold" font-size="13.00" fill="#0f172a">OUTPUT INTERFACE</text>
</g>
<g id="clust6" class="cluster">
<title>cluster_report</title>
<path fill="#ffe1f5" stroke="#cbd5f5" stroke-width="2" d="M136,-8C136,-8 272,-8 272,-8 278,-8 284,-14 284,-20 284,-20 284,-293 284,-293 284,-299 278,-305 272,-305 272,-305 136,-305 136,-305 130,-305 124,-299 124,-293 124,-293 124,-20 124,-20 124,-14 130,-8 136,-8"/>
<text xml:space="preserve" text-anchor="middle" x="198.75" y="-288.65" font-family="Helvetica,sans-Serif" font-weight="bold" font-size="13.00" fill="#0f172a">DIAGNOSIS REPORT</text>
</g>
<!-- A -->
<g id="node1" class="node">
<title>A</title>
<path fill="#ffffff" stroke="#0f172a" stroke-width="2" d="M239,-1486C239,-1486 145,-1486 145,-1486 139,-1486 133,-1480 133,-1474 133,-1474 133,-1462 133,-1462 133,-1456 139,-1450 145,-1450 145,-1450 239,-1450 239,-1450 245,-1450 251,-1456 251,-1462 251,-1462 251,-1474 251,-1474 251,-1480 245,-1486 239,-1486"/>
<text xml:space="preserve" text-anchor="middle" x="192" y="-1471.05" font-family="Times New Roman,serif" font-size="11.00" fill="#0f172a">Patient Information</text>
<text xml:space="preserve" text-anchor="middle" x="192" y="-1457.55" font-family="Times New Roman,serif" font-size="11.00" fill="#0f172a">Age, Gender, Location</text>
</g>
<!-- C -->
<g id="node3" class="node">
<title>C</title>
<path fill="#ffffff" stroke="#0f172a" stroke-width="2" d="M234.5,-1383C234.5,-1383 173.5,-1383 173.5,-1383 167.5,-1383 161.5,-1377 161.5,-1371 161.5,-1371 161.5,-1359 161.5,-1359 161.5,-1353 167.5,-1347 173.5,-1347 173.5,-1347 234.5,-1347 234.5,-1347 240.5,-1347 246.5,-1353 246.5,-1359 246.5,-1359 246.5,-1371 246.5,-1371 246.5,-1377 240.5,-1383 234.5,-1383"/>
<text xml:space="preserve" text-anchor="middle" x="204" y="-1361.3" font-family="Times New Roman,serif" font-size="11.00" fill="#0f172a">Data Validation</text>
</g>
<!-- A&#45;&gt;C -->
<g id="edge1" class="edge">
<title>A&#45;&gt;C</title>
<path fill="none" stroke="#475569" stroke-width="1.6" d="M194.04,-1449.87C195.85,-1434.56 198.55,-1411.85 200.68,-1393.92"/>
<polygon fill="#475569" stroke="#475569" stroke-width="1.6" points="201.72,-1385.15 204.68,-1394.57 201.72,-1387.72 200.96,-1394.13 200.66,-1394.09 200.36,-1394.05 201.13,-1387.65 196.64,-1393.61 201.72,-1385.15"/>
</g>
<!-- B -->
<g id="node2" class="node">
<title>B</title>
<path fill="#ffffff" stroke="#0f172a" stroke-width="2" d="M395.75,-1486C395.75,-1486 306.25,-1486 306.25,-1486 300.25,-1486 294.25,-1480 294.25,-1474 294.25,-1474 294.25,-1462 294.25,-1462 294.25,-1456 300.25,-1450 306.25,-1450 306.25,-1450 395.75,-1450 395.75,-1450 401.75,-1450 407.75,-1456 407.75,-1462 407.75,-1462 407.75,-1474 407.75,-1474 407.75,-1480 401.75,-1486 395.75,-1486"/>
<text xml:space="preserve" text-anchor="middle" x="351" y="-1471.05" font-family="Times New Roman,serif" font-size="11.00" fill="#0f172a">Clinical Symptoms</text>
<text xml:space="preserve" text-anchor="middle" x="351" y="-1457.55" font-family="Times New Roman,serif" font-size="11.00" fill="#0f172a">15 Malaria Symptoms</text>
</g>
<!-- B&#45;&gt;C -->
<g id="edge2" class="edge">
<title>B&#45;&gt;C</title>
<path fill="none" stroke="#475569" stroke-width="1.6" d="M325.73,-1449.64C301.64,-1433.09 265.19,-1408.04 238.45,-1389.67"/>
<polygon fill="#475569" stroke="#475569" stroke-width="1.6" points="231.04,-1384.58 240.75,-1386.34 233.31,-1385.78 238.63,-1389.43 238.46,-1389.67 238.29,-1389.92 232.97,-1386.27 236.16,-1393.01 231.04,-1384.58"/>
</g>
<!-- D -->
<g id="node4" class="node">
<title>D</title>
<path fill="#ffffff" stroke="#0f172a" stroke-width="2" d="M232.25,-1282C232.25,-1282 175.75,-1282 175.75,-1282 169.75,-1282 163.75,-1276 163.75,-1270 163.75,-1270 163.75,-1258 163.75,-1258 163.75,-1252 169.75,-1246 175.75,-1246 175.75,-1246 232.25,-1246 232.25,-1246 238.25,-1246 244.25,-1252 244.25,-1258 244.25,-1258 244.25,-1270 244.25,-1270 244.25,-1276 238.25,-1282 232.25,-1282"/>
<text xml:space="preserve" text-anchor="middle" x="204" y="-1260.3" font-family="Times New Roman,serif" font-size="11.00" fill="#0f172a">Data Cleaning</text>
</g>
<!-- C&#45;&gt;D -->
<g id="edge3" class="edge">
<title>C&#45;&gt;D</title>
<path fill="none" stroke="#475569" stroke-width="1.6" d="M204,-1346.76C204,-1331.94 204,-1310.3 204,-1293"/>
<polygon fill="#475569" stroke="#475569" stroke-width="1.6" points="204,-1284.33 208.05,-1293.33 204.3,-1286.88 204.3,-1293.33 204,-1293.33 203.7,-1293.33 203.7,-1286.88 199.95,-1293.33 204,-1284.33"/>
</g>
<!-- E -->
<g id="node5" class="node">
<title>E</title>
<path fill="#ffffff" stroke="#0f172a" stroke-width="2" d="M239,-1181C239,-1181 169,-1181 169,-1181 163,-1181 157,-1175 157,-1169 157,-1169 157,-1157 157,-1157 157,-1151 163,-1145 169,-1145 169,-1145 239,-1145 239,-1145 245,-1145 251,-1151 251,-1157 251,-1157 251,-1169 251,-1169 251,-1175 245,-1181 239,-1181"/>
<text xml:space="preserve" text-anchor="middle" x="204" y="-1159.3" font-family="Times New Roman,serif" font-size="11.00" fill="#0f172a">Feature Encoding</text>
</g>
<!-- D&#45;&gt;E -->
<g id="edge4" class="edge">
<title>D&#45;&gt;E</title>
<path fill="none" stroke="#475569" stroke-width="1.6" d="M204,-1245.76C204,-1230.94 204,-1209.3 204,-1192"/>
<polygon fill="#475569" stroke="#475569" stroke-width="1.6" points="204,-1183.33 208.05,-1192.33 204.3,-1185.88 204.3,-1192.33 204,-1192.33 203.7,-1192.33 203.7,-1185.88 199.95,-1192.33 204,-1183.33"/>
</g>
<!-- F -->
<g id="node6" class="node">
<title>F</title>
<path fill="#ffffff" stroke="#0f172a" stroke-width="2" d="M231.88,-1080C231.88,-1080 176.12,-1080 176.12,-1080 170.12,-1080 164.12,-1074 164.12,-1068 164.12,-1068 164.12,-1056 164.12,-1056 164.12,-1050 170.12,-1044 176.12,-1044 176.12,-1044 231.88,-1044 231.88,-1044 237.88,-1044 243.88,-1050 243.88,-1056 243.88,-1056 243.88,-1068 243.88,-1068 243.88,-1074 237.88,-1080 231.88,-1080"/>
<text xml:space="preserve" text-anchor="middle" x="204" y="-1058.3" font-family="Times New Roman,serif" font-size="11.00" fill="#0f172a">Normalization</text>
</g>
<!-- E&#45;&gt;F -->
<g id="edge5" class="edge">
<title>E&#45;&gt;F</title>
<path fill="none" stroke="#475569" stroke-width="1.6" d="M204,-1144.76C204,-1129.94 204,-1108.3 204,-1091"/>
<polygon fill="#475569" stroke="#475569" stroke-width="1.6" points="204,-1082.33 208.05,-1091.33 204.3,-1084.88 204.3,-1091.33 204,-1091.33 203.7,-1091.33 203.7,-1084.88 199.95,-1091.33 204,-1082.33"/>
</g>
<!-- G -->
<g id="node7" class="node">
<title>G</title>
<path fill="#ffffff" stroke="#0f172a" stroke-width="2" d="M241.25,-977C241.25,-977 166.75,-977 166.75,-977 160.75,-977 154.75,-971 154.75,-965 154.75,-965 154.75,-953 154.75,-953 154.75,-947 160.75,-941 166.75,-941 166.75,-941 241.25,-941 241.25,-941 247.25,-941 253.25,-947 253.25,-953 253.25,-953 253.25,-965 253.25,-965 253.25,-971 247.25,-977 241.25,-977"/>
<text xml:space="preserve" text-anchor="middle" x="204" y="-955.3" font-family="Times New Roman,serif" font-size="11.00" fill="#0f172a">Feature Extraction</text>
</g>
<!-- F&#45;&gt;G -->
<g id="edge6" class="edge">
<title>F&#45;&gt;G</title>
<path fill="none" stroke="#475569" stroke-width="1.6" d="M204,-1043.87C204,-1028.56 204,-1005.85 204,-987.92"/>
<polygon fill="#475569" stroke="#475569" stroke-width="1.6" points="204,-979.17 208.05,-988.17 204.3,-981.72 204.3,-988.17 204,-988.17 203.7,-988.17 203.7,-981.72 199.95,-988.17 204,-979.17"/>
</g>
<!-- H -->
<g id="node8" class="node">
<title>H</title>
<path fill="#ffffff" stroke="#0f172a" stroke-width="2" d="M243.88,-876C243.88,-876 164.12,-876 164.12,-876 158.12,-876 152.12,-870 152.12,-864 152.12,-864 152.12,-852 152.12,-852 152.12,-846 158.12,-840 164.12,-840 164.12,-840 243.88,-840 243.88,-840 249.88,-840 255.88,-846 255.88,-852 255.88,-852 255.88,-864 255.88,-864 255.88,-870 249.88,-876 243.88,-876"/>
<text xml:space="preserve" text-anchor="middle" x="204" y="-854.3" font-family="Times New Roman,serif" font-size="11.00" fill="#0f172a">Pattern Recognition</text>
</g>
<!-- G&#45;&gt;H -->
<g id="edge7" class="edge">
<title>G&#45;&gt;H</title>
<path fill="none" stroke="#475569" stroke-width="1.6" d="M204,-940.76C204,-925.94 204,-904.3 204,-887"/>
<polygon fill="#475569" stroke="#475569" stroke-width="1.6" points="204,-878.33 208.05,-887.33 204.3,-880.88 204.3,-887.33 204,-887.33 203.7,-887.33 203.7,-880.88 199.95,-887.33 204,-878.33"/>
</g>
<!-- I -->
<g id="node9" class="node">
<title>I</title>
<path fill="#ffffff" stroke="#0f172a" stroke-width="2" d="M245.75,-775C245.75,-775 162.25,-775 162.25,-775 156.25,-775 150.25,-769 150.25,-763 150.25,-763 150.25,-751 150.25,-751 150.25,-745 156.25,-739 162.25,-739 162.25,-739 245.75,-739 245.75,-739 251.75,-739 257.75,-745 257.75,-751 257.75,-751 257.75,-763 257.75,-763 257.75,-769 251.75,-775 245.75,-775"/>
<text xml:space="preserve" text-anchor="middle" x="204" y="-753.3" font-family="Times New Roman,serif" font-size="11.00" fill="#0f172a">ML Model Selection</text>
</g>
<!-- H&#45;&gt;I -->
<g id="edge8" class="edge">
<title>H&#45;&gt;I</title>
<path fill="none" stroke="#475569" stroke-width="1.6" d="M204,-839.76C204,-824.94 204,-803.3 204,-786"/>
<polygon fill="#475569" stroke="#475569" stroke-width="1.6" points="204,-777.33 208.05,-786.33 204.3,-779.88 204.3,-786.33 204,-786.33 203.7,-786.33 203.7,-779.88 199.95,-786.33 204,-777.33"/>
</g>
<!-- J -->
<g id="node10" class="node">
<title>J</title>
<path fill="#ffffff" stroke="#0f172a" stroke-width="2" d="M103.75,-672C103.75,-672 38.25,-672 38.25,-672 32.25,-672 26.25,-666 26.25,-660 26.25,-660 26.25,-648 26.25,-648 26.25,-642 32.25,-636 38.25,-636 38.25,-636 103.75,-636 103.75,-636 109.75,-636 115.75,-642 115.75,-648 115.75,-648 115.75,-660 115.75,-660 115.75,-666 109.75,-672 103.75,-672"/>
<text xml:space="preserve" text-anchor="middle" x="71" y="-657.05" font-family="Times New Roman,serif" font-size="11.00" fill="#0f172a">Decision Tree</text>
<text xml:space="preserve" text-anchor="middle" x="71" y="-643.55" font-family="Times New Roman,serif" font-size="11.00" fill="#0f172a">85.4% Accuracy</text>
</g>
<!-- I&#45;&gt;J -->
<g id="edge9" class="edge">
<title>I&#45;&gt;J</title>
<path fill="none" stroke="#475569" stroke-width="1.6" d="M175.48,-738.62C163.64,-731.09 149.91,-721.97 138,-713 124.22,-702.62 109.66,-690.21 97.64,-679.53"/>
<polygon fill="#475569" stroke="#475569" stroke-width="1.6" points="91.22,-673.77 100.63,-676.77 93.32,-675.25 98.12,-679.56 97.92,-679.78 97.72,-680.01 92.92,-675.7 95.21,-682.8 91.22,-673.77"/>
</g>
<!-- K -->
<g id="node11" class="node">
<title>K</title>
<path fill="#ffffff" stroke="#0f172a" stroke-width="2" d="M236.75,-672C236.75,-672 171.25,-672 171.25,-672 165.25,-672 159.25,-666 159.25,-660 159.25,-660 159.25,-648 159.25,-648 159.25,-642 165.25,-636 171.25,-636 171.25,-636 236.75,-636 236.75,-636 242.75,-636 248.75,-642 248.75,-648 248.75,-648 248.75,-660 248.75,-660 248.75,-666 242.75,-672 236.75,-672"/>
<text xml:space="preserve" text-anchor="middle" x="204" y="-657.05" font-family="Times New Roman,serif" font-size="11.00" fill="#0f172a">SVM Model</text>
<text xml:space="preserve" text-anchor="middle" x="204" y="-643.55" font-family="Times New Roman,serif" font-size="11.00" fill="#0f172a">88.2% Accuracy</text>
</g>
<!-- I&#45;&gt;K -->
<g id="edge10" class="edge">
<title>I&#45;&gt;K</title>
<path fill="none" stroke="#475569" stroke-width="1.6" d="M204,-738.87C204,-723.56 204,-700.85 204,-682.92"/>
<polygon fill="#475569" stroke="#475569" stroke-width="1.6" points="204,-674.17 208.05,-683.17 204.3,-676.72 204.3,-683.17 204,-683.17 203.7,-683.17 203.7,-676.72 199.95,-683.17 204,-674.17"/>
</g>
<!-- L -->
<g id="node12" class="node">
<title>L</title>
<path fill="#ffffff" stroke="#0f172a" stroke-width="2" d="M384.25,-672C384.25,-672 303.75,-672 303.75,-672 297.75,-672 291.75,-666 291.75,-660 291.75,-660 291.75,-648 291.75,-648 291.75,-642 297.75,-636 303.75,-636 303.75,-636 384.25,-636 384.25,-636 390.25,-636 396.25,-642 396.25,-648 396.25,-648 396.25,-660 396.25,-660 396.25,-666 390.25,-672 384.25,-672"/>
<text xml:space="preserve" text-anchor="middle" x="344" y="-657.05" font-family="Times New Roman,serif" font-size="11.00" fill="#0f172a">Logistic Regression</text>
<text xml:space="preserve" text-anchor="middle" x="344" y="-643.55" font-family="Times New Roman,serif" font-size="11.00" fill="#0f172a">86.8% Accuracy</text>
</g>
<!-- I&#45;&gt;L -->
<g id="edge11" class="edge">
<title>I&#45;&gt;L</title>
<path fill="none" stroke="#475569" stroke-width="1.6" d="M231.98,-738.54C243.86,-730.92 257.77,-721.75 270,-713 285.03,-702.25 301.23,-689.66 314.64,-678.97"/>
<polygon fill="#475569" stroke="#475569" stroke-width="1.6" points="321.48,-673.47 317,-682.27 319.68,-675.3 314.65,-679.34 314.47,-679.11 314.28,-678.87 319.31,-674.84 311.93,-675.95 321.48,-673.47"/>
</g>
<!-- M -->
<g id="node13" class="node">
<title>M</title>
<path fill="#ffffff" stroke="#0f172a" stroke-width="2" d="M242.38,-569C242.38,-569 165.62,-569 165.62,-569 159.62,-569 153.62,-563 153.62,-557 153.62,-557 153.62,-545 153.62,-545 153.62,-539 159.62,-533 165.62,-533 165.62,-533 242.38,-533 242.38,-533 248.38,-533 254.38,-539 254.38,-545 254.38,-545 254.38,-557 254.38,-557 254.38,-563 248.38,-569 242.38,-569"/>
<text xml:space="preserve" text-anchor="middle" x="204" y="-554.05" font-family="Times New Roman,serif" font-size="11.00" fill="#0f172a">Prediction Result</text>
<text xml:space="preserve" text-anchor="middle" x="204" y="-540.55" font-family="Times New Roman,serif" font-size="11.00" fill="#0f172a">Positive / Negative</text>
</g>
<!-- J&#45;&gt;M -->
<g id="edge12" class="edge">
<title>J&#45;&gt;M</title>
<path fill="none" stroke="#475569" stroke-width="1.6" d="M93.86,-635.64C115.56,-619.16 148.35,-594.26 172.51,-575.91"/>
<polygon fill="#475569" stroke="#475569" stroke-width="1.6" points="179.44,-570.65 174.72,-579.32 177.59,-572.43 172.45,-576.33 172.27,-576.1 172.09,-575.86 177.22,-571.96 169.82,-572.87 179.44,-570.65"/>
</g>
<!-- K&#45;&gt;M -->
<g id="edge13" class="edge">
<title>K&#45;&gt;M</title>
<path fill="none" stroke="#475569" stroke-width="1.6" d="M204,-635.87C204,-620.56 204,-597.85 204,-579.92"/>
<polygon fill="#475569" stroke="#475569" stroke-width="1.6" points="204,-571.17 208.05,-580.17 204.3,-573.72 204.3,-580.17 204,-580.17 203.7,-580.17 203.7,-573.72 199.95,-580.17 204,-571.17"/>
</g>
<!-- L&#45;&gt;M -->
<g id="edge14" class="edge">
<title>L&#45;&gt;M</title>
<path fill="none" stroke="#475569" stroke-width="1.6" d="M319.93,-635.64C296.99,-619.09 262.27,-594.04 236.81,-575.67"/>
<polygon fill="#475569" stroke="#475569" stroke-width="1.6" points="229.8,-570.61 239.47,-572.6 232.05,-571.86 237.28,-575.64 237.1,-575.88 236.93,-576.12 231.7,-572.35 234.73,-579.16 229.8,-570.61"/>
</g>
<!-- N -->
<g id="node14" class="node">
<title>N</title>
<path fill="#ffffff" stroke="#0f172a" stroke-width="2" d="M239.75,-468C239.75,-468 168.25,-468 168.25,-468 162.25,-468 156.25,-462 156.25,-456 156.25,-456 156.25,-444 156.25,-444 156.25,-438 162.25,-432 168.25,-432 168.25,-432 239.75,-432 239.75,-432 245.75,-432 251.75,-438 251.75,-444 251.75,-444 251.75,-456 251.75,-456 251.75,-462 245.75,-468 239.75,-468"/>
<text xml:space="preserve" text-anchor="middle" x="204" y="-446.3" font-family="Times New Roman,serif" font-size="11.00" fill="#0f172a">Confidence Score</text>
</g>
<!-- M&#45;&gt;N -->
<g id="edge15" class="edge">
<title>M&#45;&gt;N</title>
<path fill="none" stroke="#475569" stroke-width="1.6" d="M204,-532.76C204,-517.94 204,-496.3 204,-479"/>
<polygon fill="#475569" stroke="#475569" stroke-width="1.6" points="204,-470.33 208.05,-479.33 204.3,-472.88 204.3,-479.33 204,-479.33 203.7,-479.33 203.7,-472.88 199.95,-479.33 204,-470.33"/>
</g>
<!-- O -->
<g id="node15" class="node">
<title>O</title>
<path fill="#ffffff" stroke="#0f172a" stroke-width="2" d="M260,-367C260,-367 148,-367 148,-367 142,-367 136,-361 136,-355 136,-355 136,-343 136,-343 136,-337 142,-331 148,-331 148,-331 260,-331 260,-331 266,-331 272,-337 272,-343 272,-343 272,-355 272,-355 272,-361 266,-367 260,-367"/>
<text xml:space="preserve" text-anchor="middle" x="204" y="-345.3" font-family="Times New Roman,serif" font-size="11.00" fill="#0f172a">Clinical Recommendations</text>
</g>
<!-- N&#45;&gt;O -->
<g id="edge16" class="edge">
<title>N&#45;&gt;O</title>
<path fill="none" stroke="#475569" stroke-width="1.6" d="M204,-431.76C204,-416.94 204,-395.3 204,-378"/>
<polygon fill="#475569" stroke="#475569" stroke-width="1.6" points="204,-369.33 208.05,-378.33 204.3,-371.88 204.3,-378.33 204,-378.33 203.7,-378.33 203.7,-371.88 199.95,-378.33 204,-369.33"/>
</g>
<!-- P -->
<g id="node16" class="node">
<title>P</title>
<path fill="#ffffff" stroke="#0f172a" stroke-width="2" d="M254,-264C254,-264 154,-264 154,-264 148,-264 142,-258 142,-252 142,-252 142,-240 142,-240 142,-234 148,-228 154,-228 154,-228 254,-228 254,-228 260,-228 266,-234 266,-240 266,-240 266,-252 266,-252 266,-258 260,-264 254,-264"/>
<text xml:space="preserve" text-anchor="middle" x="204" y="-242.3" font-family="Times New Roman,serif" font-size="11.00" fill="#0f172a">Final Report Generation</text>
</g>
<!-- O&#45;&gt;P -->
<g id="edge17" class="edge">
<title>O&#45;&gt;P</title>
<path fill="none" stroke="#475569" stroke-width="1.6" d="M204,-330.87C204,-315.56 204,-292.85 204,-274.92"/>
<polygon fill="#475569" stroke="#475569" stroke-width="1.6" points="204,-266.17 208.05,-275.17 204.3,-268.72 204.3,-275.17 204,-275.17 203.7,-275.17 203.7,-268.72 199.95,-275.17 204,-266.17"/>
</g>
<!-- Q -->
<g id="node17" class="node">
<title>Q</title>
<path fill="#ffffff" stroke="#0f172a" stroke-width="2" d="M250.25,-163C250.25,-163 157.75,-163 157.75,-163 151.75,-163 145.75,-157 145.75,-151 145.75,-151 145.75,-139 145.75,-139 145.75,-133 151.75,-127 157.75,-127 157.75,-127 250.25,-127 250.25,-127 256.25,-127 262.25,-133 262.25,-139 262.25,-139 262.25,-151 262.25,-151 262.25,-157 256.25,-163 250.25,-163"/>
<text xml:space="preserve" text-anchor="middle" x="204" y="-141.3" font-family="Times New Roman,serif" font-size="11.00" fill="#0f172a">Treatment Suggestions</text>
</g>
<!-- P&#45;&gt;Q -->
<g id="edge18" class="edge">
<title>P&#45;&gt;Q</title>
<path fill="none" stroke="#475569" stroke-width="1.6" d="M204,-227.76C204,-212.94 204,-191.3 204,-174"/>
<polygon fill="#475569" stroke="#475569" stroke-width="1.6" points="204,-165.33 208.05,-174.33 204.3,-167.88 204.3,-174.33 204,-174.33 203.7,-174.33 203.7,-167.88 199.95,-174.33 204,-165.33"/>
</g>
<!-- R -->
<g id="node18" class="node">
<title>R</title>
<path fill="#ffffff" stroke="#0f172a" stroke-width="2" d="M240.88,-62C240.88,-62 167.12,-62 167.12,-62 161.12,-62 155.12,-56 155.12,-50 155.12,-50 155.12,-38 155.12,-38 155.12,-32 161.12,-26 167.12,-26 167.12,-26 240.88,-26 240.88,-26 246.88,-26 252.88,-32 252.88,-38 252.88,-38 252.88,-50 252.88,-50 252.88,-56 246.88,-62 240.88,-62"/>
<text xml:space="preserve" text-anchor="middle" x="204" y="-40.3" font-family="Times New Roman,serif" font-size="11.00" fill="#0f172a">Follow&#45;up Actions</text>
</g>
<!-- Q&#45;&gt;R -->
<g id="edge19" class="edge">
<title>Q&#45;&gt;R</title>
<path fill="none" stroke="#475569" stroke-width="1.6" d="M204,-126.76C204,-111.94 204,-90.3 204,-73"/>
<polygon fill="#475569" stroke="#475569" stroke-width="1.6" points="204,-64.33 208.05,-73.33 204.3,-66.88 204.3,-73.33 204,-73.33 203.7,-73.33 203.7,-66.88 199.95,-73.33 204,-64.33"/>
</g>
</g>
</svg>
